<?xml version="1.0" encoding="UTF-8"?>
<svg version="1.1" xmlns="http://www.w3.org/2000/svg" width="320" height="320">
<path d="M0 0 C6.01710611 2.77947541 11.67823238 5.51289679 16.8125 9.75 C20.5439578 12.73782208 23.10254689 14.5182833 28 15 C31.55156744 14.39476247 35.01046796 13.62231291 38.5 12.7265625 C44.85238494 11.40787545 49.45605907 11.47203759 55 15 C58.42538441 18.66161781 59.14279753 22.27916933 59.1875 27.1875 C59.20167969 27.88230469 59.21585938 28.57710937 59.23046875 29.29296875 C59.01279797 31.84967812 58.55415818 34.17086647 57.9855957 36.66918945 C57.71027763 37.88551811 57.71027763 37.88551811 57.42939758 39.12641907 C57.28769638 39.74470078 57.14599518 40.36298248 57 41 C57.55106918 41.02426056 58.10213837 41.04852112 58.66990662 41.07351685 C64.4973402 41.33524643 70.32212003 41.63380203 76.14672852 41.95214844 C78.30968024 42.06575997 80.47311852 42.17051822 82.63696289 42.265625 C98.59986743 42.97558045 113.69482334 44.2939656 127 54 C138.5165518 67.71018072 139.16436121 86.06028892 139.0625 103 C139.05747576 104.45702971 139.05291449 105.9140611 139.04882812 107.37109375 C139.03789388 110.9140977 139.02068 114.45703797 139 118 C139.95555786 117.98803589 139.95555786 117.98803589 140.93041992 117.97583008 C161.73229941 117.8261483 176.14125588 122.70243171 191 137 C191.7115625 137.65871094 192.423125 138.31742188 193.15625 138.99609375 C204.07174734 150.13486262 208.71267281 167.45093778 213 182 C213.24379395 182.80969238 213.48758789 183.61938477 213.73876953 184.45361328 C217.54629425 197.42671524 218.90569782 210.46700185 219.97094727 223.88720703 C220.59155869 231.69125465 221.38888537 239.3993565 222.6875 247.125 C226.06768483 267.90958654 226.06768483 267.90958654 222.375 275.125 C218.38085386 279.96001901 215.5854168 283.11343981 209.25 283.84765625 C207.50117549 283.94378892 205.75081689 284.01486748 204 284.0625 C202.68515625 284.15047852 202.68515625 284.15047852 201.34375 284.24023438 C195.68822561 284.47446167 192.41067672 283.89137686 188 280 C186.3203125 277.9296875 186.3203125 277.9296875 185.125 275.875 C184.71507812 275.19179688 184.30515625 274.50859375 183.8828125 273.8046875 C183 272 183 272 183 270 C182.34773438 269.95101563 181.69546875 269.90203125 181.0234375 269.8515625 C170.67633588 268.96641221 170.67633588 268.96641221 167 267 C161.41394742 260.09134444 159.52457861 252.43780317 158 243.875 C157.82629883 242.91319824 157.65259766 241.95139648 157.47363281 240.96044922 C155.85091178 231.68232098 154.82308697 222.37885941 154 213 C153.35218063 213.13612701 152.70436127 213.27225403 152.03691101 213.4125061 C144.80611055 214.84090255 137.75061069 215.4248713 130.39453125 215.7109375 C128.00583083 215.8223061 125.61715968 215.93430394 123.22851562 216.046875 C119.50944333 216.21419019 115.79035044 216.37589598 112.07055664 216.52636719 C108.44846287 216.6760858 104.82796961 216.8482341 101.20703125 217.0234375 C100.10164505 217.06213959 98.99625885 217.10084167 97.8573761 217.14071655 C90.05468827 217.53872195 83.58163648 218.88719799 78.125 224.8125 C74.23303453 230.6504482 73.63790358 236.9407933 73.0703125 243.7578125 C72.91315672 245.45316178 72.75559136 247.14847314 72.59765625 248.84375 C72.3599314 251.47580831 72.12644929 254.1080821 71.90087891 256.74121094 C69.29020619 286.83473544 69.29020619 286.83473544 60.05078125 294.6484375 C52.97526568 299.63053606 45.5489851 300.82399856 37 300 C32.21222422 298.44212626 29.22944094 295.94560527 26.54129028 291.6915741 C22.92376565 284.22131955 22.36795079 278.02227844 22.6171875 269.80078125 C22.63137726 268.56692184 22.64556702 267.33306244 22.66018677 266.06181335 C22.70767005 262.14456667 22.78847548 258.22906372 22.875 254.3125 C23.58763593 231.45835995 23.58763593 231.45835995 20 209 C12.29421184 216.62048053 5.86084066 225.40731325 -0.640625 234.0546875 C-2.93610083 236.92023183 -5.37245665 239.44037377 -8 242 C-8.57621094 242.64582031 -9.15242188 243.29164063 -9.74609375 243.95703125 C-18.6759009 253.75300907 -29.75286533 259.36228236 -43 260 C-46.12531018 260.12993328 -49.24721631 260.21174745 -52.375 260.25 C-53.12426758 260.25966797 -53.87353516 260.26933594 -54.64550781 260.27929688 C-60.11234369 260.24517485 -65.73282243 260.13272327 -69.91015625 256.203125 C-71.22051169 253.55423443 -71.43328329 251.70170012 -71.4375 248.75 C-71.45683594 247.85796875 -71.47617188 246.9659375 -71.49609375 246.046875 C-70.37850983 239.18297379 -66.10170013 233.3457897 -62.25 227.6875 C-61.81244385 227.03652344 -61.3748877 226.38554687 -60.92407227 225.71484375 C-58.34923394 221.90762419 -55.68589472 218.18472157 -52.9375 214.5 C-49.3632898 209.66218013 -46.28401068 204.61484282 -43.234375 199.43920898 C-40.32634517 194.50639961 -37.25617432 189.71187578 -34 185 C-34.78248586 182.86021384 -34.78248586 182.86021384 -36.6796875 182.39453125 C-37.76636719 182.10642578 -37.76636719 182.10642578 -38.875 181.8125 C-44.81880232 179.94908931 -50.10797299 176.84373551 -55 173 C-55.33 172.01 -55.66 171.02 -56 170 C-57.65901165 169.3145056 -59.32717885 168.6510696 -61 168 C-70.0994709 161.14696098 -76.65975589 153.41267127 -78.48657227 141.94580078 C-78.59541748 140.87313965 -78.7042627 139.80047852 -78.81640625 138.6953125 C-78.94055908 137.48343262 -79.06471191 136.27155273 -79.19262695 135.02294922 C-79.31468506 133.73662598 -79.43674316 132.45030273 -79.5625 131.125 C-79.65813736 130.13406342 -79.65813736 130.13406342 -79.75570679 129.12310791 C-84.02511551 84.61527659 -84.02511551 84.61527659 -76 70 C-75.59007813 69.24976562 -75.18015625 68.49953125 -74.7578125 67.7265625 C-68.1914191 56.85677004 -57.68139914 50.27158339 -45.56640625 47.1015625 C-29.10439495 43.62777442 -11.7570621 43.75478599 5 43 C4.45385943 38.84474021 3.98350737 35.4544917 2 31.75 C-2.19197918 22.7433201 -1.45018644 11.73197164 -1 2 C-0.67 1.34 -0.34 0.68 0 0 Z " fill="#5F7DDA" transform="translate(87,14)"/>
<path d="M0 0 C20.14216263 -0.60225735 36.58473014 2.73819072 52 16 C63.19325203 27.01271571 67.99655047 41.89845356 72.29150391 56.58642578 C72.99368491 58.97848692 73.71839945 61.36264311 74.44921875 63.74609375 C74.90443438 65.24715692 75.3588945 66.74844948 75.8125 68.25 C76.01955566 68.92844971 76.22661133 69.60689941 76.43994141 70.3059082 C78.40649362 76.95524041 79.10212151 83.49730212 79.46484375 90.40234375 C79.5433489 91.80144752 79.62213353 93.20053563 79.70117188 94.59960938 C79.82055268 96.76930038 79.93757971 98.93904471 80.04956055 101.10913086 C80.37153431 110.31848906 80.37153431 110.31848906 82.04296875 119.3359375 C83.30384294 124.16328438 83.36797862 128.71987101 83.375 133.6875 C83.39949219 134.61111328 83.42398437 135.53472656 83.44921875 136.48632812 C83.46649827 140.48653798 83.24738749 143.41446747 81.6796875 147.125 C77.33411813 150.16563163 72.90484847 149.52510479 67.75 149.3125 C66.203125 149.27866211 66.203125 149.27866211 64.625 149.24414062 C62.08185935 149.18527163 59.54166887 149.10310065 57 149 C56.04790538 146.33783253 55.11366237 143.67120116 54.1875 141 C53.92646484 140.27554688 53.66542969 139.55109375 53.39648438 138.8046875 C48.69752641 125.11389638 47.51034082 111.22809948 46.9375 96.875 C46.84140265 94.54736232 46.74177697 92.22011895 46.63172913 89.89309692 C46.56434771 88.46432725 46.50472968 87.03516042 46.45457458 85.60568237 C46.26004366 81.42860179 45.61456411 77.86545642 44 74 C42.23039678 72.80064284 42.23039678 72.80064284 40 73 C37.41677937 73.87562954 37.41677937 73.87562954 34.6875 75.25 C27.6295719 78.36100372 20.55912031 79.66830162 13 81 C12.28651901 81.16044296 11.57303802 81.32088593 10.8379364 81.4861908 C4.39892758 82.91543478 -1.79714288 83.35366908 -8.37890625 83.4921875 C-10.53842889 83.5580244 -12.6979337 83.62444833 -14.85742188 83.69140625 C-18.21660028 83.78625248 -21.57569626 83.87530758 -24.93530273 83.95361328 C-28.20886666 84.03343882 -31.48109359 84.13636155 -34.75390625 84.2421875 C-35.74789932 84.25901581 -36.7418924 84.27584412 -37.76600647 84.29318237 C-45.34977635 84.55942937 -51.55383296 86.2099917 -57.5234375 91.04296875 C-61.86854268 96.07559057 -64.56132836 100.48436316 -66 107 C-66.16516113 107.74668945 -66.33032227 108.49337891 -66.50048828 109.26269531 C-67.03044921 112.16686046 -67.27516236 114.99175034 -67.46484375 117.9375 C-67.54283203 119.08089844 -67.62082031 120.22429687 -67.70117188 121.40234375 C-67.85666325 123.76941074 -68.01035875 126.1365965 -68.16210938 128.50390625 C-70.1034536 156.75598892 -70.1034536 156.75598892 -77.94140625 163.7265625 C-83.63443062 167.37254233 -89.37625588 168.0885533 -96 167 C-100.51702845 164.98346944 -102.55641278 162.82628157 -104.40673828 158.24899292 C-105.68402805 153.40692143 -105.29408089 148.37843376 -105.1875 143.41015625 C-105.17614014 142.1928331 -105.16478027 140.97550995 -105.15307617 139.72129822 C-105.10435045 134.53899074 -105.020496 129.35740826 -104.93847656 124.17553711 C-103.322 98.4411941 -103.322 98.4411941 -112 75 C-115.8890655 71.34054722 -119.62724291 67.96465411 -125 67 C-123.03681826 70.53372712 -120.95929119 73.24479785 -118 76 C-118.53625 76.639375 -119.0725 77.27875 -119.625 77.9375 C-121.4297546 80.26468356 -122.99051388 82.52583054 -124.5625 85 C-127.66046828 89.71771819 -131.21998212 93.93607565 -134.9050293 98.19677734 C-137.5446782 101.25321292 -140.01615252 104.34261373 -142.375 107.625 C-149.38515817 116.74157588 -159.1697858 124.97384232 -170.51953125 127.578125 C-175.59816492 128.19371696 -180.63930117 128.14404608 -185.75 128.125 C-186.80316406 128.12886719 -187.85632813 128.13273438 -188.94140625 128.13671875 C-189.94558594 128.13542969 -190.94976562 128.13414062 -191.984375 128.1328125 C-192.89928711 128.13168457 -193.81419922 128.13055664 -194.75683594 128.12939453 C-197 128 -197 128 -199 127 C-199.38965255 120.95708327 -198.68311207 117.30037105 -195.3125 112.1875 C-194.91603271 111.55642334 -194.51956543 110.92534668 -194.11108398 110.27514648 C-190.19773384 104.12176642 -186.03440435 98.12677456 -181.87915039 92.13525391 C-178.34713699 87.03087828 -174.99495231 81.85298832 -171.75 76.5625 C-170.54425507 74.64615037 -169.33423717 72.73255646 -168.12353516 70.81933594 C-167.03116987 69.05047325 -166.00643443 67.25323039 -164.98046875 65.4453125 C-161.92831391 60.57820516 -159.52078825 57.14798085 -153.83203125 55.66796875 C-150.86013096 55.07868247 -147.90570928 54.71186714 -144.890625 54.4296875 C-141.39155815 54.04324437 -139.18182563 53.34986542 -136 52 C-133.52974507 51.45768278 -131.04925324 50.96078811 -128.5625 50.5 C-123.86964416 49.62867258 -119.51970609 48.50847334 -115 47 C-113.61206803 46.67673765 -112.22043587 46.36915154 -110.82641602 46.07324219 C-96.22688922 42.87902252 -82.10113492 38.14364419 -68 33.25 C-66.19439106 32.62720827 -64.38864394 32.00481703 -62.58276367 31.3828125 C-59.02218451 30.15565958 -55.46264271 28.92556311 -51.90380859 27.69335938 C-47.62436791 26.21313513 -43.33903946 24.7513524 -39.05078125 23.296875 C-18.07129128 17.78601314 -18.07129128 17.78601314 -2 5 C-1.31422631 3.34110378 -0.64419783 1.67547945 0 0 Z " fill="#5F7DDA" transform="translate(221,139)"/>
<path d="M0 0 C6.01710611 2.77947541 11.67823238 5.51289679 16.8125 9.75 C20.5439578 12.73782208 23.10254689 14.5182833 28 15 C31.55156744 14.39476247 35.01046796 13.62231291 38.5 12.7265625 C44.85238494 11.40787545 49.45605907 11.47203759 55 15 C58.42538441 18.66161781 59.14279753 22.27916933 59.1875 27.1875 C59.20167969 27.88230469 59.21585938 28.57710937 59.23046875 29.29296875 C59.01279797 31.84967812 58.55415818 34.17086647 57.9855957 36.66918945 C57.71027763 37.88551811 57.71027763 37.88551811 57.42939758 39.12641907 C57.28769638 39.74470078 57.14599518 40.36298248 57 41 C57.55106918 41.02426056 58.10213837 41.04852112 58.66990662 41.07351685 C64.4973402 41.33524643 70.32212003 41.63380203 76.14672852 41.95214844 C78.30968024 42.06575997 80.47311852 42.17051822 82.63696289 42.265625 C98.59986743 42.97558045 113.69482334 44.2939656 127 54 C138.5165518 67.71018072 139.16436121 86.06028892 139.0625 103 C139.05747576 104.45702971 139.05291449 105.9140611 139.04882812 107.37109375 C139.03789388 110.9140977 139.02068 114.45703797 139 118 C139.95555786 117.98803589 139.95555786 117.98803589 140.93041992 117.97583008 C161.73229941 117.8261483 176.14125588 122.70243171 191 137 C191.7115625 137.65871094 192.423125 138.31742188 193.15625 138.99609375 C204.07174734 150.13486262 208.71267281 167.45093778 213 182 C213.24379395 182.80969238 213.48758789 183.61938477 213.73876953 184.45361328 C217.54629425 197.42671524 218.90569782 210.46700185 219.97094727 223.88720703 C220.59155869 231.69125465 221.38888537 239.3993565 222.6875 247.125 C226.06768483 267.90958654 226.06768483 267.90958654 222.375 275.125 C218.38085386 279.96001901 215.5854168 283.11343981 209.25 283.84765625 C207.50117549 283.94378892 205.75081689 284.01486748 204 284.0625 C202.68515625 284.15047852 202.68515625 284.15047852 201.34375 284.24023438 C195.68822561 284.47446167 192.41067672 283.89137686 188 280 C186.3203125 277.9296875 186.3203125 277.9296875 185.125 275.875 C184.71507812 275.19179688 184.30515625 274.50859375 183.8828125 273.8046875 C183 272 183 272 183 270 C182.34773438 269.95101563 181.69546875 269.90203125 181.0234375 269.8515625 C170.67633588 268.96641221 170.67633588 268.96641221 167 267 C161.41394742 260.09134444 159.52457861 252.43780317 158 243.875 C157.82629883 242.91319824 157.65259766 241.95139648 157.47363281 240.96044922 C155.85091178 231.68232098 154.82308697 222.37885941 154 213 C153.35218063 213.13612701 152.70436127 213.27225403 152.03691101 213.4125061 C144.80611055 214.84090255 137.75061069 215.4248713 130.39453125 215.7109375 C128.00583083 215.8223061 125.61715968 215.93430394 123.22851562 216.046875 C119.50944333 216.21419019 115.79035044 216.37589598 112.07055664 216.52636719 C108.44846287 216.6760858 104.82796961 216.8482341 101.20703125 217.0234375 C100.10164505 217.06213959 98.99625885 217.10084167 97.8573761 217.14071655 C90.05468827 217.53872195 83.58163648 218.88719799 78.125 224.8125 C74.23303453 230.6504482 73.63790358 236.9407933 73.0703125 243.7578125 C72.91315672 245.45316178 72.75559136 247.14847314 72.59765625 248.84375 C72.3599314 251.47580831 72.12644929 254.1080821 71.90087891 256.74121094 C69.29020619 286.83473544 69.29020619 286.83473544 60.05078125 294.6484375 C52.97526568 299.63053606 45.5489851 300.82399856 37 300 C32.21222422 298.44212626 29.22944094 295.94560527 26.54129028 291.6915741 C22.92376565 284.22131955 22.36795079 278.02227844 22.6171875 269.80078125 C22.63137726 268.56692184 22.64556702 267.33306244 22.66018677 266.06181335 C22.70767005 262.14456667 22.78847548 258.22906372 22.875 254.3125 C23.58763593 231.45835995 23.58763593 231.45835995 20 209 C12.29421184 216.62048053 5.86084066 225.40731325 -0.640625 234.0546875 C-2.93610083 236.92023183 -5.37245665 239.44037377 -8 242 C-8.57621094 242.64582031 -9.15242188 243.29164063 -9.74609375 243.95703125 C-18.6759009 253.75300907 -29.75286533 259.36228236 -43 260 C-46.12531018 260.12993328 -49.24721631 260.21174745 -52.375 260.25 C-53.12426758 260.25966797 -53.87353516 260.26933594 -54.64550781 260.27929688 C-60.11234369 260.24517485 -65.73282243 260.13272327 -69.91015625 256.203125 C-71.22051169 253.55423443 -71.43328329 251.70170012 -71.4375 248.75 C-71.45683594 247.85796875 -71.47617188 246.9659375 -71.49609375 246.046875 C-70.37850983 239.18297379 -66.10170013 233.3457897 -62.25 227.6875 C-61.81244385 227.03652344 -61.3748877 226.38554687 -60.92407227 225.71484375 C-58.34923394 221.90762419 -55.68589472 218.18472157 -52.9375 214.5 C-49.3632898 209.66218013 -46.28401068 204.61484282 -43.234375 199.43920898 C-40.32634517 194.50639961 -37.25617432 189.71187578 -34 185 C-34.78248586 182.86021384 -34.78248586 182.86021384 -36.6796875 182.39453125 C-37.76636719 182.10642578 -37.76636719 182.10642578 -38.875 181.8125 C-44.81880232 179.94908931 -50.10797299 176.84373551 -55 173 C-55.33 172.01 -55.66 171.02 -56 170 C-57.65901165 169.3145056 -59.32717885 168.6510696 -61 168 C-70.0994709 161.14696098 -76.65975589 153.41267127 -78.48657227 141.94580078 C-78.59541748 140.87313965 -78.7042627 139.80047852 -78.81640625 138.6953125 C-78.94055908 137.48343262 -79.06471191 136.27155273 -79.19262695 135.02294922 C-79.31468506 133.73662598 -79.43674316 132.45030273 -79.5625 131.125 C-79.65813736 130.13406342 -79.65813736 130.13406342 -79.75570679 129.12310791 C-84.02511551 84.61527659 -84.02511551 84.61527659 -76 70 C-75.59007813 69.24976562 -75.18015625 68.49953125 -74.7578125 67.7265625 C-68.1914191 56.85677004 -57.68139914 50.27158339 -45.56640625 47.1015625 C-29.10439495 43.62777442 -11.7570621 43.75478599 5 43 C4.45385943 38.84474021 3.98350737 35.4544917 2 31.75 C-2.19197918 22.7433201 -1.45018644 11.73197164 -1 2 C-0.67 1.34 -0.34 0.68 0 0 Z M19.17088318 50.23323059 C11.87870003 50.88870566 4.60618176 51.28349688 -2.7109375 51.52734375 C-4.27869682 51.58086502 -4.27869682 51.58086502 -5.87812805 51.63546753 C-10.12813574 51.77633091 -14.37824458 51.90945504 -18.62890625 52.02905273 C-21.802579 52.12094985 -24.97536586 52.22933212 -28.1484375 52.33984375 C-29.09335052 52.36183334 -30.03826355 52.38382294 -31.0118103 52.40647888 C-43.76032869 52.87755331 -56.64766534 57.60856707 -66.0625 66.4375 C-69.21660622 69.94206247 -71.28220472 73.62598423 -73 78 C-73.2990625 78.75023438 -73.598125 79.50046875 -73.90625 80.2734375 C-77.44497725 90.39812936 -76.17772704 100.55421 -74.78027344 110.98071289 C-73.85193262 118.26430674 -73.63110144 125.55627586 -73.51782227 132.89404297 C-73.23301101 143.30557783 -70.8284078 150.01532938 -63.5859375 157.5859375 C-59.36154506 161.52955461 -54.80894341 164.80945101 -50 168 C-49.0203125 168.65355469 -48.040625 169.30710937 -47.03125 169.98046875 C-38.96165642 175.2408893 -33.57425858 177.3903167 -23.9375 177.375 C-22.52730591 177.3747583 -22.52730591 177.3747583 -21.08862305 177.37451172 C-14.75256687 177.27068674 -9.46928464 176.39933941 -3.5546875 174.01171875 C-0.24974974 172.70288254 3.03403319 172.12389939 6.51953125 171.4921875 C10.03549305 170.79453209 13.44893699 169.78941119 16.89599609 168.81298828 C20.02947901 167.99227898 23.16134165 167.35625072 26.33984375 166.734375 C34.55141486 164.98900057 42.37856304 162.4040872 50.3125 159.6875 C51.85852895 159.16405583 53.40475813 158.64120275 54.95117188 158.11889648 C58.23679348 157.00743044 61.52060727 155.89082028 64.80322266 154.77050781 C69.28381412 153.24202454 73.7686269 151.72632932 78.25468445 150.213974 C81.94119906 148.97044889 85.62623406 147.72258372 89.31088257 146.47354126 C91.08251458 145.87333324 92.85449954 145.27416584 94.62686157 144.67611694 C114.60697671 139.57065554 114.60697671 139.57065554 129.328125 127.34375 C129.63234375 126.4053125 129.9365625 125.466875 130.25 124.5 C130.56453125 123.5615625 130.8790625 122.623125 131.203125 121.65625 C136.82721315 102.9092895 134.08798466 80.71959056 125.67578125 63.25 C120.29426168 55.46522649 108.4447411 52.34883712 99.64599609 50.50732422 C85.52258415 48.18908001 70.8354652 48.810038 56.5625 48.75 C55.62779877 48.74437042 54.69309753 48.73874084 53.73007202 48.73294067 C42.1369399 48.68303322 30.71535874 49.17210423 19.17088318 50.23323059 Z M134 125 C133.76925781 125.53109375 133.53851563 126.0621875 133.30078125 126.609375 C132.97464844 127.31578125 132.64851562 128.0221875 132.3125 128.75 C131.99925781 129.44609375 131.68601563 130.1421875 131.36328125 130.859375 C127.63929912 136.70677387 121.56568364 138.64969755 115.375 141 C114.38717529 141.38027344 113.39935059 141.76054687 112.3815918 142.15234375 C48.13010045 166.53820723 48.13010045 166.53820723 19.3046875 172.50390625 C16.53787825 173.09947366 13.80440072 173.79882691 11.0625 174.5 C6.48280805 175.66244732 1.90553035 176.64622557 -2.74609375 177.47265625 C-5.06531786 177.94317541 -5.06531786 177.94317541 -7.36328125 179.03515625 C-10.55715724 180.20387828 -13.35870625 180.21673962 -16.75 180.375 C-22.30879551 181.18145738 -24.99686989 182.14235049 -28.4375 186.625 C-29.5371697 188.32392791 -30.63078745 190.02774932 -31.66699219 191.76611328 C-33.27033795 194.45303888 -34.93477685 197.09806218 -36.6015625 199.74609375 C-38.55781535 202.85665429 -40.50608216 205.97014219 -42.42163086 209.10595703 C-46.09456362 215.10304138 -49.9855864 220.83252089 -54.16381836 226.48852539 C-56.58869764 229.80520311 -58.84351855 233.19185125 -61 236.6875 C-61.58974609 237.5856543 -61.58974609 237.5856543 -62.19140625 238.50195312 C-65.07456587 243.18834324 -65.38664293 246.52054478 -65 252 C-61.08294476 253.95852762 -56.18187144 253.18484144 -51.875 253.1875 C-50.8540625 253.19974609 -49.833125 253.21199219 -48.78125 253.22460938 C-33.76095845 253.25356881 -23.4380932 247.70123544 -12.62402344 237.62548828 C-8.38772972 233.3853735 -4.8931209 228.52669404 -1.32177734 223.72998047 C0.80856554 220.941726 3.09587873 218.29172112 5.375 215.625 C12.16756733 208.17361824 12.16756733 208.17361824 15 199 C13.34997172 197.64613064 11.6825613 196.31321858 10 195 C9.67 194.01 9.34 193.02 9 192 C15.55999618 194.49279855 20.20913277 197.28811533 24.1875 203.3125 C30.99210929 218.81198578 29.26068787 236.5926126 29 253.0625 C28.92001995 258.17836649 28.86024409 263.29389906 28.8125 268.41015625 C28.78760498 269.5706398 28.76270996 270.73112335 28.73706055 271.92677307 C28.68099842 278.08765349 28.90550013 282.60805449 32 288 C35.53969425 291.45120189 38.50365594 292.30692507 43.3125 292.5625 C49.15258157 292.30029226 53.59343277 290.91891894 58 287 C66.29906298 276.08338415 65.4171345 259.90279622 66.2109375 246.84179688 C67.07845488 233.76172883 68.45148579 223.76435448 78.5 214.5625 C84.41277762 209.47577219 91.55621024 209.63644733 98.953125 209.4375 C100.00852478 209.40068115 101.06392456 209.3638623 102.15130615 209.32592773 C105.51731854 209.2088404 108.88353228 209.10310922 112.25 209 C116.67225487 208.86369544 121.09394451 208.71619815 125.515625 208.5625 C126.517005 208.53534912 127.51838501 208.50819824 128.55010986 208.48022461 C134.89047886 208.25960683 140.81988129 207.40754236 147 206 C148.53191752 205.68698238 150.06439033 205.37665698 151.59765625 205.0703125 C161.22160527 203.13796526 161.22160527 203.13796526 170.375 199.6875 C174 198 174 198 176.1015625 198.01953125 C178 199 178 199 179.08789062 201.59008789 C180.08822158 205.32981554 180.35063345 208.67134819 180.4921875 212.5390625 C180.55503554 214.01215611 180.61862125 215.48521839 180.68286133 216.95825195 C180.72898056 218.10228989 180.72898056 218.10228989 180.77603149 219.2694397 C181.58023708 238.41042544 183.77639059 256.11860622 191 274 C194.582906 274.14533755 198.16505417 274.23407931 201.75 274.3125 C202.76578125 274.35439453 203.7815625 274.39628906 204.828125 274.43945312 C210.61837142 274.59526265 210.61837142 274.59526265 215.6796875 272.125 C217.59162148 267.59971248 217.50390622 263.5486215 217.375 258.6875 C217.37371094 257.77548828 217.37242187 256.86347656 217.37109375 255.92382812 C217.30921426 251.12816777 216.80376653 247.03154536 215.49462891 242.39672852 C214.26401474 236.43377727 214.29538155 230.19964579 214 224.125 C213.27658099 209.32195405 210.65809394 196.05532585 206.375 181.875 C206.04269379 180.77466431 206.04269379 180.77466431 205.70367432 179.65209961 C199.35858173 158.81590259 192.07224616 142.88669248 172.45703125 131.52734375 C167.0900248 128.67326125 162.0017031 126.9167788 156 126 C155.30519531 125.88914062 154.61039063 125.77828125 153.89453125 125.6640625 C147.28395 124.77301876 140.65746588 124.90739228 134 125 Z " fill="#040608" transform="translate(87,14)"/>
<path d="M0 0 C4.28030932 1.94559514 5.64783699 3.31996108 7.8125 7.5 C10.42330499 15.19500419 11.61074512 24.07012297 9.125 32 C3.92553512 39.340421 -7.07395276 41.57364315 -15.3125 44.125 C-16.41682373 44.47046875 -17.52114746 44.8159375 -18.65893555 45.171875 C-44.00770418 53.0100426 -44.00770418 53.0100426 -53 51 C-55.80859375 49.24609375 -55.80859375 49.24609375 -58 46 C-58.71299931 41.84045526 -58.65186425 37.77228095 -58.5625 33.5625 C-58.57345703 32.44294922 -58.58441406 31.32339844 -58.59570312 30.16992188 C-58.53938175 23.84315404 -58.29578054 19.7766515 -54 15 C-49.77801548 11.28977118 -46.03552616 10.91106962 -40.5625 10.4375 C-26.32167355 8.89258068 -14.33482729 -1.54137928 0 0 Z " fill="#5C7FC8" transform="translate(130,99)"/>
<path d="M0 0 C4.46325831 1.59402083 8.40753509 3.08775111 10.62890625 7.484375 C13.86030448 17.74370211 11.24335305 26.29927944 6.51953125 35.38671875 C3.23562894 40.04261892 -0.68959971 41.69488528 -6.203125 42.88671875 C-14.65491783 44.2234819 -20.19459559 43.58430423 -27.50390625 38.953125 C-30.68283894 36.24076755 -31.39815682 34.3001751 -31.80078125 30.1484375 C-31.83433829 20.05895353 -30.40541501 12.12646525 -25.5 3.25 C-24.18 3.25 -22.86 3.25 -21.5 3.25 C-21.17 2.26 -20.84 1.27 -20.5 0.25 C-15.00926487 -2.49536756 -5.90513338 -1.29821026 0 0 Z " fill="#020204" transform="translate(169.5,68.75)"/>
<path d="M0 0 C0.66 0 1.32 0 2 0 C2.5396157 5.93577267 1.63941857 9.57374321 -1.125 14.82421875 C-7.75591223 22.51883981 -18.50852582 24.85308717 -27.8125 27.9375 C-29.39395422 28.46991898 -30.97517092 29.00304396 -32.55615234 29.53686523 C-42.06759299 32.73798671 -51.60171659 35.86957198 -61.1953125 38.81640625 C-63.95622851 39.67529491 -66.67080225 40.5829119 -69.3984375 41.53515625 C-74.03786521 43.08872608 -78.68781148 44.02867508 -83.5 44.875 C-89.34612878 45.92188071 -95.15819436 47.01010587 -100.94140625 48.3671875 C-116.76613048 51.99403085 -131.79644637 52.59150342 -148 52 C-148 51.67 -148 51.34 -148 51 C-147.40832031 50.87882812 -146.81664062 50.75765625 -146.20703125 50.6328125 C-145.41683594 50.46523437 -144.62664062 50.29765625 -143.8125 50.125 C-142.64654297 49.88136719 -142.64654297 49.88136719 -141.45703125 49.6328125 C-138.98150737 49.05785916 -138.98150737 49.05785916 -136.6640625 48.0234375 C-133.34221223 46.74730147 -130.05998863 46.14807443 -126.5625 45.5 C-121.86964416 44.62867258 -117.51970609 43.50847334 -113 42 C-111.61206803 41.67673765 -110.22043587 41.36915154 -108.82641602 41.07324219 C-94.22688922 37.87902252 -80.10113492 33.14364419 -66 28.25 C-64.19439106 27.62720827 -62.38864394 27.00481703 -60.58276367 26.3828125 C-57.02218451 25.15565958 -53.46264271 23.92556311 -49.90380859 22.69335938 C-45.62436791 21.21313513 -41.33903946 19.7513524 -37.05078125 18.296875 C-16.20965236 12.68607593 -16.20965236 12.68607593 0 0 Z " fill="#4E5FA0" transform="translate(219,144)"/>
<path d="M0 0 C4.0625 3.25 4.0625 3.25 4.8125 6.25 C5.45177959 12.64279594 4.36285262 16.88988972 0.8125 22.25 C-2.22814217 25.68046809 -5.61182582 28.40193394 -9.1875 31.25 C-11.04467332 32.74627581 -12.89877921 34.24636587 -14.75 35.75 C-15.67941406 36.5028125 -16.60882813 37.255625 -17.56640625 38.03125 C-20.17465478 40.15418684 -20.17465478 40.15418684 -22.23046875 42.421875 C-24.41975231 44.46695425 -26.08351812 45.16059357 -28.9375 46 C-29.73671875 46.24234375 -30.5359375 46.4846875 -31.359375 46.734375 C-31.96265625 46.90453125 -32.5659375 47.0746875 -33.1875 47.25 C-36.98803494 43.44946506 -36.33084181 29.16637824 -36.5625 23.8125 C-36.35703198 16.26155016 -33.1110179 9.17465316 -27.9296875 3.72265625 C-20.5155036 -2.54449023 -8.80970026 -4.63474836 0 0 Z " fill="#040507" transform="translate(313.1875,93.75)"/>
<path d="M0 0 C1.175625 -0.01675781 2.35125 -0.03351563 3.5625 -0.05078125 C8.60484022 0.48210243 11.89023646 2.4681147 15.875 5.5 C18.22677273 8.61264038 18.41126414 10.33930948 18.30273438 14.17504883 C17.79331214 17.77181627 16.1964128 20.50494672 14.3125 23.5625 C13.97283203 24.160625 13.63316406 24.75875 13.28320312 25.375 C9.90095258 31.09005513 5.76125546 34.6042757 -0.5546875 36.765625 C-6.11680222 38.00954842 -12.75821675 38.80445706 -18.0625 36.36328125 C-19.625 35.125 -19.625 35.125 -22 32.3125 C-22.639375 31.590625 -23.27875 30.86875 -23.9375 30.125 C-26.13763135 24.30112288 -24.58149837 18.21724907 -22.375 12.5625 C-19.68739458 7.06069905 -15.86713225 3.48505269 -10.2109375 1.171875 C-6.69228891 0.23014423 -3.63955763 0.01197223 0 0 Z " fill="#020204" transform="translate(57,87.6875)"/>
<path d="M0 0 C6.01710611 2.77947541 11.67823238 5.51289679 16.8125 9.75 C20.5439578 12.73782208 23.10254689 14.5182833 28 15 C31.55156744 14.39476247 35.01046796 13.62231291 38.5 12.7265625 C44.85238494 11.40787545 49.45605907 11.47203759 55 15 C58.42538441 18.66161781 59.14279753 22.27916933 59.1875 27.1875 C59.20167969 27.88230469 59.21585938 28.57710937 59.23046875 29.29296875 C59.01279797 31.84967812 58.55415818 34.17086647 57.9855957 36.66918945 C57.71027763 37.88551811 57.71027763 37.88551811 57.42939758 39.12641907 C57.28769638 39.74470078 57.14599518 40.36298248 57 41 C57.55106918 41.02426056 58.10213837 41.04852112 58.66990662 41.07351685 C64.4973402 41.33524643 70.32212003 41.63380203 76.14672852 41.95214844 C78.30968024 42.06575997 80.47311852 42.17051822 82.63696289 42.265625 C98.59986743 42.97558045 113.69482334 44.2939656 127 54 C134.58928694 63.0348654 138.76993689 76.45866728 138.17578125 88.12109375 C138.11777344 88.74113281 138.05976563 89.36117187 138 90 C137.67 90 137.34 90 137 90 C136.82984375 89.20078125 136.6596875 88.4015625 136.484375 87.578125 C133.49191425 70.59257976 133.49191425 70.59257976 124.33129883 56.72143555 C119.52923177 53.72203529 114.80702654 51.52868555 109.4375 49.75 C108.74076172 49.49476562 108.04402344 49.23953125 107.32617188 48.9765625 C100.03964857 46.52405687 92.62909166 46.27976923 85 46 C84.25662384 45.97246643 83.51324768 45.94493286 82.74734497 45.91656494 C77.1865877 45.72007691 71.62498281 45.57470007 66.0625 45.4375 C64.39647715 45.39415711 62.73046144 45.35053878 61.06445312 45.30664062 C57.04304366 45.20126492 53.02155722 45.09957044 49 45 C49.42297363 44.52804199 49.84594727 44.05608398 50.28173828 43.56982422 C50.83071777 42.9460791 51.37969727 42.32233398 51.9453125 41.6796875 C52.76539795 40.75518799 52.76539795 40.75518799 53.60205078 39.81201172 C55.60753617 37.21251599 55.86957953 35.26051163 56 32 C56.06058594 31.28585938 56.12117187 30.57171875 56.18359375 29.8359375 C56.49548554 24.18408022 55.60081717 21.36462688 52 17 C50.24521418 15.24521418 47.88495037 15.74471472 45.5 15.6875 C40.24021753 15.7062626 36.6127276 16.5848448 32.03515625 19.125 C29.37279522 20.26966194 27.88777496 20.42095845 25 20 C22.55528485 18.66184013 20.34649973 17.31855956 18.0625 15.75 C17.46759766 15.35425781 16.87269531 14.95851563 16.25976562 14.55078125 C13.39282211 12.63948557 10.56140626 10.69040442 7.74609375 8.703125 C5.11364599 6.73646904 5.11364599 6.73646904 2 7 C2.86474123 21.34277696 4.2948443 36.52973227 15 47 C3.967869 47.82589783 -7.03581303 48.26301367 -18.09594727 48.47680664 C-36.7924348 48.68692176 -36.7924348 48.68692176 -54.25 54.625 C-60.85267857 58 -60.85267857 58 -63 58 C-63.20625 58.53625 -63.4125 59.0725 -63.625 59.625 C-65.53250426 62.91978009 -68.04819384 65.59363628 -71 68 C-71.66 68 -72.32 68 -73 68 C-73.103125 68.763125 -73.20625 69.52625 -73.3125 70.3125 C-74.04364039 73.17059424 -74.76951913 74.15742885 -77 76 C-77.44803965 70.51638427 -75.35476159 67.84693732 -72.1796875 63.5625 C-61.31141171 50.78545893 -47.12727057 46.51066178 -31 45 C-19.01663125 44.08534139 -7.00500295 43.54073966 5 43 C4.45385943 38.84474021 3.98350737 35.4544917 2 31.75 C-2.19197918 22.7433201 -1.45018644 11.73197164 -1 2 C-0.67 1.34 -0.34 0.68 0 0 Z " fill="#161616" transform="translate(87,14)"/>
<path d="M0 0 C4.28030932 1.94559514 5.64783699 3.31996108 7.8125 7.5 C10.42330499 15.19500419 11.61074512 24.07012297 9.125 32 C3.92553512 39.340421 -7.07395276 41.57364315 -15.3125 44.125 C-16.41682373 44.47046875 -17.52114746 44.8159375 -18.65893555 45.171875 C-44.00770418 53.0100426 -44.00770418 53.0100426 -53 51 C-55.80859375 49.24609375 -55.80859375 49.24609375 -58 46 C-58.71299931 41.84045526 -58.65186425 37.77228095 -58.5625 33.5625 C-58.57345703 32.44294922 -58.58441406 31.32339844 -58.59570312 30.16992188 C-58.53938175 23.84315404 -58.29578054 19.7766515 -54 15 C-49.77801548 11.28977118 -46.03552616 10.91106962 -40.5625 10.4375 C-26.32167355 8.89258068 -14.33482729 -1.54137928 0 0 Z M-20.25 8.875 C-21.96297922 9.60288757 -23.67650772 10.32948404 -25.390625 11.0546875 C-26.19056885 11.39508057 -26.9905127 11.73547363 -27.81469727 12.08618164 C-32.71298818 14.13447825 -36.75231827 15.1823149 -42.0625 15.3125 C-47.15156563 15.61999842 -47.15156563 15.61999842 -51.1875 18.4375 C-54.69073247 23.3903459 -54.21853381 27.51005597 -54.25 33.4375 C-54.270625 34.40494141 -54.29125 35.37238281 -54.3125 36.36914062 C-54.31765625 37.29791016 -54.3228125 38.22667969 -54.328125 39.18359375 C-54.3374707 40.03493896 -54.34681641 40.88628418 -54.35644531 41.76342773 C-53.92032258 44.49994851 -53.21056725 45.37174279 -51 47 C-44.22595203 47.88915109 -37.69488344 45.66069535 -31.1875 43.9375 C-29.99439209 43.62385498 -28.80128418 43.31020996 -27.57202148 42.98706055 C-20.44915769 41.0638154 -13.45239182 38.95596573 -6.5625 36.3125 C-5.84280029 36.03978271 -5.12310059 35.76706543 -4.3815918 35.48608398 C-0.49545022 33.91371974 2.62068603 32.51203523 5 29 C5.34764383 26.1982264 5.4714079 23.84564385 5.375 21.0625 C5.37371094 20.35931641 5.37242187 19.65613281 5.37109375 18.93164062 C5.28932446 14.08453887 4.78473691 10.22939947 1.71142578 6.39038086 C-1.10257357 4.10425728 -3.73514384 4.54525907 -7.23632812 4.65332031 C-11.9140251 5.24009855 -15.96420317 6.98112342 -20.25 8.875 Z " fill="#05070C" transform="translate(130,99)"/>
<path d="M0 0 C0.66 0.33 1.32 0.66 2 1 C2.01458252 1.64735107 2.02916504 2.29470215 2.04418945 2.96166992 C2.41573429 17.85103404 3.53918254 32.31239841 6 47 C6.21420494 48.32280943 6.42780115 49.64571766 6.640625 50.96875 C7.07894404 53.64875782 7.52933634 56.32552298 8 59 C-0.40832049 59.32973806 -0.40832049 59.32973806 -4 57 C-13.34428153 43.12515773 -14.26175111 21.27219387 -14 5 C-13.40832031 4.80664062 -12.81664062 4.61328125 -12.20703125 4.4140625 C-8.77305494 3.28247487 -5.39149191 2.1665923 -2.0625 0.75 C-1.381875 0.5025 -0.70125 0.255 0 0 Z " fill="#5C7FC8" transform="translate(261,216)"/>
<path d="M0 0 C2.703687 1.30658255 5.24040039 2.73224818 7.765625 4.35546875 C17.54907586 10.55044606 27.27475187 15.65798536 38 20 C40.33764757 20.99024954 42.66884087 21.9945193 45 23 C41.1316398 29.22301423 35.8335833 30.08327356 29.125 31.6875 C14.74206469 33.12579353 14.74206469 33.12579353 9.4921875 29.49609375 C2.48620525 22.47177124 0 9.59901034 0 0 Z " fill="#42B77A" transform="translate(93,27)"/>
<path d="M0 0 C1.28583984 0.00966797 1.28583984 0.00966797 2.59765625 0.01953125 C4.9375 0.1875 4.9375 0.1875 7.9375 1.1875 C9.53877074 4.39004147 9.34451607 6.64064564 8.9375 10.1875 C5.78771111 16.0352638 0.2229006 19.02366448 -5.29296875 22.34375 C-9.43340443 25.10014723 -12.73435808 28.51605404 -16.0625 32.1875 C-19.72979988 26.68655018 -19.85923411 20.65984566 -19.0625 14.1875 C-16.69127431 8.25451622 -12.67977328 4.33477499 -7.2265625 1.09765625 C-4.6666907 0.02103147 -2.76795297 -0.0459238 0 0 Z " fill="#5C7FC9" transform="translate(302.0625,98.8125)"/>
<path d="M0 0 C0 3.63 0 7.26 0 11 C-0.33 11 -0.66 11 -1 11 C-1.495 7.535 -1.495 7.535 -2 4 C-2.64781937 4.13612701 -3.29563873 4.27225403 -3.96308899 4.4125061 C-11.19388945 5.84090255 -18.24938931 6.4248713 -25.60546875 6.7109375 C-27.99416917 6.8223061 -30.38284032 6.93430394 -32.77148438 7.046875 C-36.49055667 7.21419019 -40.20964956 7.37589598 -43.92944336 7.52636719 C-47.55153713 7.6760858 -51.17203039 7.8482341 -54.79296875 8.0234375 C-55.89835495 8.06213959 -57.00374115 8.10084167 -58.1426239 8.14071655 C-65.94531173 8.53872195 -72.41836352 9.88719799 -77.875 15.8125 C-81.76696547 21.6504482 -82.36209642 27.9407933 -82.9296875 34.7578125 C-83.08684328 36.45316178 -83.24440864 38.14847314 -83.40234375 39.84375 C-83.6400686 42.47580831 -83.87355071 45.1080821 -84.09912109 47.74121094 C-86.70979381 77.83473544 -86.70979381 77.83473544 -95.94921875 85.6484375 C-102.99267686 90.60796337 -110.48213701 91.89075691 -119 91 C-122.56317161 89.57097075 -125.45189643 87.90028048 -128 85 C-128 84.01 -128 83.02 -128 82 C-127.42636719 82.29519531 -126.85273437 82.59039062 -126.26171875 82.89453125 C-119.44737243 86.22520484 -113.4881901 88.0410953 -106 86 C-97.8643076 82.98811388 -94.16964417 79.62709827 -90.46875 71.734375 C-88.98252612 68.2209804 -88.36639781 64.93094759 -87.9375 61.125 C-87.82245117 60.13306641 -87.82245117 60.13306641 -87.70507812 59.12109375 C-86.84849108 51.36306148 -86.30532991 43.56851171 -85.78491211 35.78173828 C-85.03438772 25.34030454 -83.62902624 15.88331439 -75.4375 8.625 C-70.83474001 4.7910752 -66.3714097 4.77926619 -60.58203125 4.5703125 C-58.84527541 4.49838484 -57.1085411 4.42593609 -55.37182617 4.35302734 C-54.46290619 4.31602722 -53.55398621 4.2790271 -52.61752319 4.24090576 C-36.95836439 3.59385702 -21.50932775 2.66374318 -6.0065918 0.24365234 C-4 0 -4 0 0 0 Z " fill="#161616" transform="translate(243,223)"/>
<path d="M0 0 C2 4 2 4 2 7 C2.54785156 6.97679687 3.09570312 6.95359375 3.66015625 6.9296875 C23.37870041 6.48081007 38.34340272 11.03959065 52.5390625 24.59423828 C53.02117187 25.05813965 53.50328125 25.52204102 54 26 C55.06734375 26.98806641 55.06734375 26.98806641 56.15625 27.99609375 C64.23717033 36.24230563 68.60970823 48.37567429 72.5 59.0625 C72.75531494 59.75206787 73.01062988 60.44163574 73.27368164 61.15209961 C74.80025598 65.56238198 75.24189098 69.34964591 75 74 C72.67365805 71.67365805 72.26013915 70.13590901 71.30078125 67.01171875 C70.98230225 66.00109375 70.66382324 64.99046875 70.33569336 63.94921875 C69.99803955 62.87285156 69.66038574 61.79648438 69.3125 60.6875 C63.01076384 41.26133268 54.7059938 27.65436342 37 17 C28.16227006 12.6322793 19.1477285 11.6590158 9.4375 10.875 C8.42880859 10.78863281 7.42011719 10.70226562 6.38085938 10.61328125 C3.92102896 10.4034379 1.46057287 10.20095035 -1 10 C-0.67 6.7 -0.34 3.4 0 0 Z " fill="#141414" transform="translate(224,125)"/>
<path d="M0 0 C4.0625 3.25 4.0625 3.25 4.8125 6.25 C5.45177959 12.64279594 4.36285262 16.88988972 0.8125 22.25 C-2.22814217 25.68046809 -5.61182582 28.40193394 -9.1875 31.25 C-11.04467332 32.74627581 -12.89877921 34.24636587 -14.75 35.75 C-15.67941406 36.5028125 -16.60882813 37.255625 -17.56640625 38.03125 C-20.17465478 40.15418684 -20.17465478 40.15418684 -22.23046875 42.421875 C-24.41975231 44.46695425 -26.08351812 45.16059357 -28.9375 46 C-29.73671875 46.24234375 -30.5359375 46.4846875 -31.359375 46.734375 C-31.96265625 46.90453125 -32.5659375 47.0746875 -33.1875 47.25 C-33.1875 46.26 -33.1875 45.27 -33.1875 44.25 C-32.3625 44.064375 -31.5375 43.87875 -30.6875 43.6875 C-25.0865404 41.38710588 -21.25078556 37.19418249 -16.88671875 33.08203125 C-12.70989774 29.22812414 -9.71719792 26.86844817 -4.1875 25.25 C-2.92922877 23.40017528 -2.92922877 23.40017528 -2.1875 21.25 C-1.671875 20.693125 -1.15625 20.13625 -0.625 19.5625 C1.58958556 15.99990584 1.92379966 12.40518727 1.8125 8.25 C0.50538926 4.63622324 -0.4312285 3.61934189 -3.875 1.9375 C-12.55746903 0.13547813 -17.70848375 1.6454811 -25.1875 6.25 C-27.60609197 8.00065833 -27.60609197 8.00065833 -29.1875 10.25 C-29.909375 11.1575 -30.63125 12.065 -31.375 13 C-34.69709101 18.90159696 -34.02928054 26.66015954 -34.1875 33.25 C-37.21811493 27.94036264 -37.02548891 22.45435534 -35.5 16.62109375 C-32.81729559 9.29954631 -29.15173576 3.50604059 -22.125 -0.1875 C-15.28883854 -2.8595022 -6.63966936 -3.49310371 0 0 Z " fill="#181818" transform="translate(313.1875,93.75)"/>
<path d="M0 0 C0.33 0 0.66 0 1 0 C2.67501762 7.10861138 3.95302848 17.41434077 0.375 24.125 C-3.61914614 28.96001901 -6.4145832 32.11343981 -12.75 32.84765625 C-14.49882451 32.94378892 -16.24918311 33.01486748 -18 33.0625 C-18.8765625 33.12115234 -19.753125 33.17980469 -20.65625 33.24023438 C-26.32005593 33.47480465 -29.55581163 32.85942675 -34 29 C-38 23.73684211 -38 23.73684211 -38 21 C-37.34 21 -36.68 21 -36 21 C-35.525625 21.804375 -35.05125 22.60875 -34.5625 23.4375 C-33.20016328 26.2918076 -33.20016328 26.2918076 -30 27 C-26.37980511 27.28095068 -22.75489466 27.27746241 -19.125 27.3125 C-17.63419922 27.35600586 -17.63419922 27.35600586 -16.11328125 27.40039062 C-11.7946046 27.43796947 -8.81105441 27.41790972 -4.9296875 25.41796875 C-0.77545006 20.21255787 -0.65581523 13.95689679 -0.375 7.5625 C-0.33632813 6.83095703 -0.29765625 6.09941406 -0.2578125 5.34570312 C-0.16466016 3.56416468 -0.08129714 1.78211878 0 0 Z " fill="#171717" transform="translate(309,265)"/>
<path d="M0 0 C0.66 0.33 1.32 0.66 2 1 C1.57847656 1.61746094 1.15695313 2.23492187 0.72265625 2.87109375 C-2.82419748 8.35411234 -5.62639974 13.29230282 -5 20 C-4.28685106 22.19751666 -4.28685106 22.19751666 -3 24 C4.36823533 26.88950405 12.20391228 26.240262 20 26 C21.37091797 25.99033203 21.37091797 25.99033203 22.76953125 25.98046875 C33.52279412 25.51142497 42.13501219 19.36877588 50.0390625 12.5390625 C52 11 52 11 54 11 C50.39785839 19.03156934 41.83476908 23.71082706 34 27 C26.67938232 29.02546734 19.17456914 29.1713024 11.625 29.25 C10.87597412 29.25950684 10.12694824 29.26901367 9.35522461 29.27880859 C3.88830493 29.24591571 -1.73288453 29.13266486 -5.91015625 25.203125 C-8.00173849 20.97498026 -7.58380342 16.58793339 -7 12 C-5.48266964 7.51494997 -3.02725621 3.63270745 0 0 Z " fill="#141414" transform="translate(23,245)"/>
<path d="M0 0 C2.53300725 3.34356957 1.86794933 7.01529637 1.5625 11.0625 C-5.50286889 9.80896681 -11.15206473 7.50046251 -17.4375 4.0625 C-17.4375 3.4025 -17.4375 2.7425 -17.4375 2.0625 C-11.50006212 -0.43747384 -6.36389514 -2.44765198 0 0 Z " fill="#348462" transform="translate(137.4375,33.9375)"/>
<path d="M0 0 C2.51833106 2.51833106 2.67655501 4.2935041 3.4375 7.75 C4.92301614 15.37768932 4.92301614 15.37768932 9.67578125 21.078125 C12.6730278 22.26694884 15.55950096 22.67833013 18.75 23.125 C19.92046875 23.29257812 21.0909375 23.46015625 22.296875 23.6328125 C23.18890625 23.75398438 24.0809375 23.87515625 25 24 C25.33 25.65 25.66 27.3 26 29 C10.80455309 27.52783532 10.80455309 27.52783532 6.60546875 23.97265625 C5.09836292 21.67956611 3.98936663 19.55621766 3 17 C2.64035156 16.20980469 2.28070313 15.41960937 1.91015625 14.60546875 C0.85444694 11.58333095 0.58533842 8.87763269 0.375 5.6875 C0.26285156 4.08455078 0.26285156 4.08455078 0.1484375 2.44921875 C0.09945312 1.64097656 0.05046875 0.83273437 0 0 Z " fill="#161616" transform="translate(246,256)"/>
<path d="M0 0 C0.66 0.33 1.32 0.66 2 1 C2.625 3.5625 2.625 3.5625 3 6 C1.68 6 0.36 6 -1 6 C-2.54874326 7.44609196 -2.54874326 7.44609196 -3.8046875 9.45703125 C-5.94423606 12.51035935 -8.12990128 15.45128981 -10.5078125 18.32421875 C-11.10207031 19.04287109 -11.69632813 19.76152344 -12.30859375 20.50195312 C-12.90800781 21.22318359 -13.50742188 21.94441406 -14.125 22.6875 C-15.33624718 24.14948307 -16.54719267 25.61171615 -17.7578125 27.07421875 C-18.60134277 28.08814697 -18.60134277 28.08814697 -19.46191406 29.12255859 C-20.7768479 30.72761276 -22.04578875 32.37016052 -23.3046875 34.01953125 C-23.86414063 34.67308594 -24.42359375 35.32664063 -25 36 C-25.66 36 -26.32 36 -27 36 C-25.2859892 32.01370059 -22.62435992 28.79882407 -19.9375 25.4375 C-19.20756836 24.51420898 -19.20756836 24.51420898 -18.46289062 23.57226562 C-16.13412441 20.6362592 -13.78241431 17.72283779 -11.37890625 14.84765625 C-10.20134766 13.43806641 -10.20134766 13.43806641 -9 12 C-8.29875 11.175 -7.5975 10.35 -6.875 9.5 C-4.8695627 6.9813661 -4.8695627 6.9813661 -3.375 3.75 C-2 1 -2 1 0 0 Z " fill="#171717" transform="translate(106,218)"/>
<path d="M0 0 C0.598125 0.226875 1.19625 0.45375 1.8125 0.6875 C3.07514601 4.98049643 2.44200412 7.56581311 0.8125 11.6875 C-0.85361905 11.730221 -2.52132885 11.72813832 -4.1875 11.6875 C-5.1875 10.6875 -5.1875 10.6875 -5.4375 6.8125 C-5.39888482 4.1239184 -5.35139703 2.9579301 -3.9375 0.625 C-2.1875 -0.3125 -2.1875 -0.3125 0 0 Z " fill="#F5F5F5" transform="translate(149.1875,83.3125)"/>
<path d="M0 0 C3.5832182 0.60939085 5.60712544 2.08352037 8.4375 4.3125 C14.17879027 8.4833028 20.17866233 10.27862796 27 12 C26.67 13.32 26.34 14.64 26 16 C4.74004684 8.66548516 4.74004684 8.66548516 0.69921875 1.78515625 C0.46847656 1.19605469 0.23773437 0.60695312 0 0 Z " fill="#151515" transform="translate(30,183)"/>
<path d="M0 0 C1.9375 0.3125 1.9375 0.3125 4 1 C5.31223496 4.93670488 4.24296256 7.12488144 3 11 C1.33388095 11.042721 -0.33382885 11.04063832 -2 11 C-3 10 -3 10 -3.25 7.1875 C-2.97826344 3.72285889 -2.31309135 2.50584896 0 0 Z " fill="#F4F4F4" transform="translate(44,95)"/>
<path d="M0 0 C0.99 0 1.98 0 3 0 C4.38226016 2.76452033 4.09525387 5.0461363 4.0625 8.125 C4.05347656 9.22070312 4.04445313 10.31640625 4.03515625 11.4453125 C4.02355469 12.28835937 4.01195313 13.13140625 4 14 C2.68 14 1.36 14 0 14 C-0.99293628 11.02119115 -1.13406411 8.98398802 -1.125 5.875 C-1.12757812 4.98554687 -1.13015625 4.09609375 -1.1328125 3.1796875 C-1 1 -1 1 0 0 Z " fill="#090C13" transform="translate(85,119)"/>
<path d="M0 0 C1.32 0 2.64 0 4 0 C4 3.96 4 7.92 4 12 C2.68 12 1.36 12 0 12 C0 8.04 0 4.08 0 0 Z " fill="#020204" transform="translate(100,118)"/>
<path d="M0 0 C4.95335326 0.49533533 8.77262549 1.30985258 13 4 C14.875 6.6875 14.875 6.6875 16 9 C12.34061828 7.56835889 8.76011932 6.01065704 5.1875 4.375 C4.21167969 3.92898437 3.23585937 3.48296875 2.23046875 3.0234375 C1.49441406 2.68570313 0.75835937 2.34796875 0 2 C0 1.34 0 0.68 0 0 Z " fill="#1B1B1B" transform="translate(252,136)"/>
<path d="M0 0 C0.66 0.66 1.32 1.32 2 2 C5.12196336 2.46486718 5.12196336 2.46486718 8.625 2.625 C9.81351563 2.69976562 11.00203125 2.77453125 12.2265625 2.8515625 C13.14179688 2.90054688 14.05703125 2.94953125 15 3 C14.67 3.66 14.34 4.32 14 5 C7.73 5 1.46 5 -5 5 C-3.35 3.35 -1.7 1.7 0 0 Z " fill="#1B1B1B" transform="translate(142,53)"/>
<path d="M0 0 C5.33333333 5.33333333 10.66666667 10.66666667 16 16 C9.80101962 14.94838726 5.56709561 9.72380517 1.5 5.25 C0 3 0 3 0 0 Z " fill="#151515" transform="translate(13,166)"/>
<path d="M0 0 C0 0.66 0 1.32 0 2 C-5.96674616 3.32594359 -11.92583615 3.0884587 -18 3 C-18 2.34 -18 1.68 -18 1 C-11.93303301 0.22959149 -6.11485027 -0.09706112 0 0 Z " fill="#1E1E1E" transform="translate(224,226)"/>
<path d="M0 0 C0 3.63 0 7.26 0 11 C-0.33 11 -0.66 11 -1 11 C-1.33 8.69 -1.66 6.38 -2 4 C-4.31 4 -6.62 4 -9 4 C-8.67 3.01 -8.34 2.02 -8 1 C-5.17884816 -0.07009208 -3.09455459 0 0 0 Z " fill="#1A1A1A" transform="translate(243,223)"/>
<path d="M0 0 C4.29 0 8.58 0 13 0 C13 0.66 13 1.32 13 2 C14.65 2 16.3 2 18 2 C18 2.33 18 2.66 18 3 C5.33029613 3.3690205 5.33029613 3.3690205 0 1 C0 0.67 0 0.34 0 0 Z " fill="#121212" transform="translate(193,227)"/>
<path d="M0 0 C2.31 0.33 4.62 0.66 7 1 C6.01 1.495 6.01 1.495 5 2 C5 2.66 5 3.32 5 4 C2.69 3.67 0.38 3.34 -2 3 C-1.34 2.67 -0.68 2.34 0 2 C0 1.34 0 0.68 0 0 Z " fill="#111111" transform="translate(247,134)"/>
<path d="M0 0 C0 0.66 0 1.32 0 2 C0.66 2.33 1.32 2.66 2 3 C0.54207116 3.05399736 -0.91642712 3.09279177 -2.375 3.125 C-3.18710937 3.14820313 -3.99921875 3.17140625 -4.8359375 3.1953125 C-7 3 -7 3 -9 1 C-5.94152152 0.45627049 -3.11227195 0 0 0 Z " fill="#121212" transform="translate(53,60)"/>
<path d="M0 0 C3.73487777 0.4979837 5.81237635 0.87491756 9 3 C6.08517222 3.80967438 4.53886783 4.21845993 1.6875 3.0625 C1.130625 2.711875 0.57375 2.36125 0 2 C0 1.34 0 0.68 0 0 Z " fill="#111111" transform="translate(187,58)"/>
<path d="M0 0 C-4.455 1.485 -4.455 1.485 -9 3 C-9 2.01 -9 1.02 -9 0 C-5.32431536 -0.91892116 -3.83619425 -0.95904856 0 0 Z " fill="#141414" transform="translate(289,138)"/>
</svg>
