<?xml version="1.0" encoding="UTF-8"?>
<svg version="1.1" xmlns="http://www.w3.org/2000/svg" width="410" height="386">
<path d="M0 0 C3.87018503 0.33026819 5.24649266 1.30734489 8.25 3.71484375 C12.60263504 7.03283604 16.96522506 10.2768072 21.5 13.33984375 C22.06589844 13.74581787 22.63179687 14.15179199 23.21484375 14.57006836 C26.2647662 16.60379433 28.05801383 17.28248624 31.75 17.18359375 C35.30733267 16.26249868 38.59443766 15.09197783 42 13.71484375 C49.58399348 10.93135678 55.89873444 9.93240712 63.6875 12.33984375 C67.54240914 15.25453115 69.84540805 18.78356659 70.6184082 23.5480957 C70.74984148 26.01165281 70.74722609 28.43623408 70.6875 30.90234375 C70.69458984 31.73507813 70.70167969 32.5678125 70.70898438 33.42578125 C70.62647416 41.39753722 67.86437703 44.72781642 62.25 50.27734375 C64.01537109 50.30707275 64.01537109 50.30707275 65.81640625 50.33740234 C78.96330017 50.56665612 92.10744221 50.86690686 105.25 51.27734375 C105.9595282 51.29949951 106.6690564 51.32165527 107.40008545 51.34448242 C122.46965639 51.84467738 135.35316968 54.35228647 149.25 60.27734375 C150.31089844 60.71433594 151.37179687 61.15132812 152.46484375 61.6015625 C161.27214544 65.58802537 166.54598098 71.34680029 170.25 80.27734375 C171.63068513 84.4464921 172.79541045 88.66242962 173.9375 92.90234375 C174.24494141 94.00835937 174.55238281 95.114375 174.86914062 96.25390625 C177.39778031 105.46103194 178.44316047 113.74015718 178.4375 123.27734375 C178.43814453 124.38843506 178.43878906 125.49952637 178.43945312 126.64428711 C178.38783506 134.68790718 177.83348729 142.3740456 176.25 150.27734375 C177.31476563 150.39851562 178.37953125 150.5196875 179.4765625 150.64453125 C207.97508308 153.91745209 233.88003977 158.63389088 252.8515625 182.32421875 C266.25282881 201.04107113 272.07000904 223.4323671 278.25 245.27734375 C278.44086182 245.94606506 278.63172363 246.61478638 278.82836914 247.30377197 C280.89535012 254.58518225 282.8367507 261.69291337 283.25 269.27734375 C283.344021 270.90953857 283.344021 270.90953857 283.43994141 272.57470703 C283.57954281 275.12518129 283.71477179 277.67589771 283.84619141 280.22680664 C284.43681183 291.57724981 285.24591415 302.65229485 287.375 313.83984375 C288.88207611 321.87940482 289.64963173 329.65442084 289.6875 337.83984375 C289.70224365 339.25922241 289.70224365 339.25922241 289.71728516 340.70727539 C289.61875939 348.60004578 287.80533996 354.38531652 282.25 360.27734375 C278.46086397 362.8713733 274.18929665 362.76797099 269.75 362.96484375 C268.94989502 363.00319336 268.14979004 363.04154297 267.32543945 363.08105469 C249.28107674 363.81319514 249.28107674 363.81319514 243.25 359.27734375 C241.703125 356.90234375 241.703125 356.90234375 240.5 354.27734375 C240.09265625 353.41109375 239.6853125 352.54484375 239.265625 351.65234375 C238.25 349.27734375 238.25 349.27734375 237.25 346.27734375 C235.38794922 346.02210938 235.38794922 346.02210938 233.48828125 345.76171875 C231.84623066 345.51775695 230.20431006 345.27291904 228.5625 345.02734375 C227.74587891 344.91777344 226.92925781 344.80820312 226.08789062 344.6953125 C221.11232113 343.92984027 217.75686624 343.14437463 214.25 339.27734375 C211.06298996 334.20603793 209.2358499 328.73113053 207.75 322.96484375 C207.43808716 321.76843262 207.43808716 321.76843262 207.11987305 320.54785156 C204.25587458 308.9606321 202.82364017 297.09381345 201.25 285.27734375 C201.02004041 283.59107632 200.78963044 281.90487019 200.55859375 280.21875 C200.10609823 276.90699581 199.675759 273.59264011 199.25 270.27734375 C198.36538086 270.44731873 198.36538086 270.44731873 197.46289062 270.62072754 C184.521284 273.04480712 171.72401507 274.65409025 158.5625 275.18359375 C157.89741425 275.21079498 157.23232849 275.23799622 156.54708862 275.26602173 C151.08277649 275.4844492 145.61741374 275.66852477 140.15161133 275.84515381 C136.6887024 275.9576211 133.22638815 276.07695356 129.7644043 276.21520996 C127.2039595 276.3162073 124.64284658 276.40189827 122.08129883 276.46936035 C113.6649337 276.80930036 107.11029688 278.11891903 100.5 283.52734375 C90.65924383 295.55493463 89.70077412 308.48856195 88.6875 323.46484375 C85.68702443 365.9334455 85.68702443 365.9334455 76.25390625 377.55859375 C69.02885521 383.75551862 59.19477195 386.70786999 49.78515625 386.55078125 C43.33337799 385.85490378 37.1848126 383.85084076 32.75 378.96484375 C27.13513497 371.40823865 26.07792359 363.69094823 26.125 354.46484375 C26.1254834 353.54195557 26.1259668 352.61906738 26.12646484 351.66821289 C26.15699661 344.99702287 26.32876127 338.33503721 26.546875 331.66796875 C27.86218608 299.65870921 27.86218608 299.65870921 22.25 268.27734375 C21.90977923 266.9457512 21.57388955 265.61300256 21.25 264.27734375 C17.19676962 265.96688331 16.497605 267.83775618 14.6796875 271.76953125 C12.54054306 275.52180101 9.7033081 278.62302041 6.875 281.86010742 C2.93684783 286.39426593 -0.7062912 291.10150521 -4.3125 295.90234375 C-17.555748 313.327264 -33.87972271 331.0928309 -56.75 334.27734375 C-61.53995386 334.49368067 -66.33061301 334.46246085 -71.125 334.46484375 C-73.05859375 334.48321289 -73.05859375 334.48321289 -75.03125 334.50195312 C-90.84508902 334.52630709 -90.84508902 334.52630709 -95.6875 330.77734375 C-99.15589815 325.88078166 -98.53676732 319.99208 -97.75 314.27734375 C-95.75686745 309.17670743 -92.78399012 304.80164563 -89.75 300.27734375 C-88.50209227 298.3792427 -87.25474022 296.48077625 -86.0078125 294.58203125 C-81.96158739 288.45351839 -77.86059928 282.36278992 -73.75 276.27734375 C-71.95457414 273.61318177 -70.16228106 270.94697648 -68.375 268.27734375 C-67.98731445 267.69895752 -67.59962891 267.12057129 -67.20019531 266.5246582 C-63.80545315 261.42751465 -60.59581028 256.22082926 -57.37988281 251.00976562 C-53.77734661 245.21925651 -49.87251107 239.71260974 -45.75 234.27734375 C-46.51441406 234.09300781 -47.27882813 233.90867188 -48.06640625 233.71875 C-62.5843635 229.78789515 -73.9957426 221.39253597 -85.75 212.27734375 C-87.16605 211.27647071 -88.58264722 210.27637105 -90 209.27734375 C-99.95980981 201.71948391 -106.09403217 192.31545271 -107.81640625 179.87109375 C-108.8318831 172.25351813 -109.36594847 164.63388086 -109.8125 156.96484375 C-110.34653442 147.27347852 -110.34653442 147.27347852 -111.2890625 137.6171875 C-113.88341705 115.78751074 -111.91439656 95.11086382 -98.5 76.96484375 C-92.08089552 70.69162801 -85.03579947 66.11668589 -76.875 62.46484375 C-76.26422607 62.18713135 -75.65345215 61.90941895 -75.02416992 61.62329102 C-63.96911822 56.92985291 -52.47089889 55.78420124 -40.5859375 55.36328125 C-39.17675818 55.30389002 -37.76762941 55.24328859 -36.35855103 55.18154907 C-32.69415481 55.02360906 -29.02936364 54.87933849 -25.36425781 54.73895264 C-19.4649523 54.51078227 -13.56648503 54.26214006 -7.66807938 54.01195145 C-5.6169566 53.92706499 -3.56566474 53.84860129 -1.51425171 53.77108765 C-0.27511017 53.720784 0.96403137 53.67048035 2.24072266 53.61865234 C3.33180328 53.57662689 4.42288391 53.53460144 5.54702759 53.49130249 C8.34668851 53.37865929 8.34668851 53.37865929 11.25 52.27734375 C10.54875 51.69984375 9.8475 51.12234375 9.125 50.52734375 C1.43987217 42.66755392 -0.68195818 32.42874222 -2.20703125 21.96484375 C-2.63931666 18.52098798 -2.63931666 18.52098798 -3.31640625 16.1953125 C-3.96574295 13.32302131 -3.88158096 10.52824438 -3.875 7.58984375 C-3.87757812 6.43097656 -3.88015625 5.27210937 -3.8828125 4.078125 C-3.7071577 0.37387528 -3.7071577 0.37387528 0 0 Z " fill="#5F7DDA" transform="translate(111.75,-0.27734375)"/>
<path d="M0 0 C24.8928526 -0.59583956 46.80829353 2.89793492 66 20 C67.28777344 21.10988281 67.28777344 21.10988281 68.6015625 22.2421875 C90.31904709 42.21151543 102.74051425 88.1174571 104.13891602 116.85473633 C104.24946893 119.98622949 104.3442461 123.11794717 104.4375 126.25 C104.74705679 134.97886981 105.33578857 143.41224233 107 152 C113.16056726 183.99898704 113.16056726 183.99898704 107 195 C103.78548686 198.09291223 101.41881714 198.38427472 97.02734375 198.3984375 C95.88072266 198.40230469 94.73410156 198.40617188 93.55273438 198.41015625 C92.35970703 198.39855469 91.16667969 198.38695312 89.9375 198.375 C88.74060547 198.38660156 87.54371094 198.39820313 86.31054688 198.41015625 C84.59254883 198.40435547 84.59254883 198.40435547 82.83984375 198.3984375 C81.79175537 198.39505371 80.74366699 198.39166992 79.66381836 198.38818359 C77 198 77 198 75.21289062 196.63598633 C63.26677682 180.52267944 62.38693568 152.33464182 61.4765625 133.09765625 C61.41461197 131.79356056 61.41461197 131.79356056 61.35140991 130.46311951 C61.14919174 126.08139802 60.97052761 121.70002119 60.82177734 117.31616211 C60.75625708 115.67952185 60.69066759 114.04288436 60.625 112.40625 C60.60627838 111.66226456 60.58755676 110.91827911 60.56826782 110.15174866 C60.35340594 105.13316854 59.21708731 101.51420318 57 97 C51.41372284 97.25862394 47.52743871 98.12305355 42.58203125 100.8828125 C37.53963582 103.06454486 32.08090116 103.99696022 26.73046875 105.16796875 C23.08992484 105.91328768 23.08992484 105.91328768 20 107 C17.49913246 107.3739615 15.01046017 107.70684285 12.5 108 C11.75967529 108.08757568 11.01935059 108.17515137 10.2565918 108.26538086 C3.65665431 109.00467859 -2.9435773 109.3926044 -9.578125 109.65820312 C-10.70541016 109.70557617 -10.70541016 109.70557617 -11.85546875 109.75390625 C-12.51184326 109.77783447 -13.16821777 109.8017627 -13.84448242 109.82641602 C-16.10919585 109.97220665 -16.10919585 109.97220665 -18.74511719 110.50439453 C-22.58229746 111.08866365 -26.35182243 111.15392706 -30.22265625 111.17578125 C-31.83009093 111.19899939 -33.43751282 111.22311751 -35.04492188 111.24804688 C-37.54362336 111.28291701 -40.04185798 111.31238816 -42.54077148 111.32592773 C-61.41017949 111.26931319 -61.41017949 111.26931319 -77.44921875 120.13671875 C-89.65889741 134.80678606 -90.32250304 150.73506719 -91.28686523 168.9777832 C-93.11588865 203.21220557 -93.11588865 203.21220557 -101.125 213.8125 C-109.41049564 220.11668147 -116.5452485 222.26765566 -127 221 C-131.13107549 219.94420198 -134.14836819 218.18289523 -137 215 C-140.81848147 207.85202967 -140.35148953 200.48394037 -140.22549438 192.59887886 C-140.1867602 190.14452937 -140.16754252 187.69067436 -140.15307617 185.23606873 C-140.11321878 179.1343537 -140.04106463 173.03310521 -139.96887207 166.93170166 C-139.90902341 161.77690525 -139.86235958 156.62229558 -139.83218384 151.46723747 C-139.81311251 149.08055926 -139.77558551 146.69467315 -139.73706055 144.3082428 C-139.58296659 129.02607803 -140.6171522 110.16972988 -150.37890625 97.640625 C-153.77824764 94.20032769 -157.66038195 91.14511201 -162 89 C-164.25044565 89.20711418 -164.25044565 89.20711418 -166 90 C-166 90.99 -166 91.98 -166 93 C-163.99894897 94.62317557 -163.99894897 94.62317557 -161.5 96.0625 C-158.96875 97.59765625 -158.96875 97.59765625 -157 99 C-157 99.66 -157 100.32 -157 101 C-158.051875 101.99 -158.051875 101.99 -159.125 103 C-161.58379515 105.34170966 -163.14048115 107.79991742 -164.8125 110.75 C-167.33782939 115.10555548 -170.18298325 118.57707026 -173.59765625 122.25390625 C-176.75586475 125.864021 -179.61279805 129.67199193 -182.5 133.5 C-184.66137956 136.33740173 -186.82963425 139.16946916 -189 142 C-189.66515625 142.87140625 -190.3303125 143.7428125 -191.015625 144.640625 C-202.17008177 158.2068562 -217.40301331 168.13420723 -235 170 C-238.50136456 170.1334394 -241.99646459 170.13986649 -245.5 170.125 C-246.41136719 170.12886719 -247.32273437 170.13273438 -248.26171875 170.13671875 C-261.88293669 170.11706331 -261.88293669 170.11706331 -265 167 C-266.44812275 159.80702186 -263.81148281 154.76995709 -260 148.875 C-259.46818115 148.020271 -258.9363623 147.16554199 -258.38842773 146.28491211 C-253.52061151 138.56737044 -248.27742783 131.10736052 -243.00927734 123.65991211 C-238.47295143 117.22053951 -234.21608691 110.66766226 -230.125 103.9375 C-225.10121308 95.67357837 -219.82559014 87.72453941 -214 80 C-213.39800781 79.071875 -212.79601562 78.14375 -212.17578125 77.1875 C-209.15063653 74.14606186 -206.98297967 74.26983137 -202.75 74 C-196.83429066 73.48904231 -191.50388229 72.45577621 -185.875 70.5625 C-179.73664096 68.50591041 -173.65352787 66.95964701 -167.296875 65.6796875 C-163.16388442 64.82762546 -159.09388025 63.78132429 -155.0078125 62.73046875 C-151.9760941 61.99419428 -148.93810431 61.4032953 -145.875 60.8125 C-127.11678805 56.86889371 -108.7983322 50.07918871 -90.703125 43.82421875 C-89.53144775 43.41929199 -88.35977051 43.01436523 -87.15258789 42.59716797 C-84.65658565 41.73405672 -82.16098575 40.86978116 -79.66577148 40.00439453 C-73.23728043 37.77892468 -66.79952249 35.59016355 -60.33203125 33.48046875 C-48.15676324 29.5053508 -36.05214426 25.42563951 -24.125 20.75 C-23.1153418 20.36199219 -22.10568359 19.97398437 -21.06542969 19.57421875 C-13.13079023 16.38848395 -5.55596144 12.84816083 -2 4.625 C-1.608125 3.75101563 -1.21625 2.87703125 -0.8125 1.9765625 C-0.544375 1.32429687 -0.27625 0.67203125 0 0 Z " fill="#5F7DDB" transform="translate(285,158)"/>
<path d="M0 0 C3.87018503 0.33026819 5.24649266 1.30734489 8.25 3.71484375 C12.60263504 7.03283604 16.96522506 10.2768072 21.5 13.33984375 C22.06589844 13.74581787 22.63179687 14.15179199 23.21484375 14.57006836 C26.2647662 16.60379433 28.05801383 17.28248624 31.75 17.18359375 C35.30733267 16.26249868 38.59443766 15.09197783 42 13.71484375 C49.58399348 10.93135678 55.89873444 9.93240712 63.6875 12.33984375 C67.54240914 15.25453115 69.84540805 18.78356659 70.6184082 23.5480957 C70.74984148 26.01165281 70.74722609 28.43623408 70.6875 30.90234375 C70.69458984 31.73507813 70.70167969 32.5678125 70.70898438 33.42578125 C70.62647416 41.39753722 67.86437703 44.72781642 62.25 50.27734375 C64.01537109 50.30707275 64.01537109 50.30707275 65.81640625 50.33740234 C78.96330017 50.56665612 92.10744221 50.86690686 105.25 51.27734375 C105.9595282 51.29949951 106.6690564 51.32165527 107.40008545 51.34448242 C122.46965639 51.84467738 135.35316968 54.35228647 149.25 60.27734375 C150.31089844 60.71433594 151.37179687 61.15132812 152.46484375 61.6015625 C161.27214544 65.58802537 166.54598098 71.34680029 170.25 80.27734375 C171.63068513 84.4464921 172.79541045 88.66242962 173.9375 92.90234375 C174.24494141 94.00835937 174.55238281 95.114375 174.86914062 96.25390625 C177.39778031 105.46103194 178.44316047 113.74015718 178.4375 123.27734375 C178.43814453 124.38843506 178.43878906 125.49952637 178.43945312 126.64428711 C178.38783506 134.68790718 177.83348729 142.3740456 176.25 150.27734375 C177.31476563 150.39851562 178.37953125 150.5196875 179.4765625 150.64453125 C207.97508308 153.91745209 233.88003977 158.63389088 252.8515625 182.32421875 C266.25282881 201.04107113 272.07000904 223.4323671 278.25 245.27734375 C278.44086182 245.94606506 278.63172363 246.61478638 278.82836914 247.30377197 C280.89535012 254.58518225 282.8367507 261.69291337 283.25 269.27734375 C283.344021 270.90953857 283.344021 270.90953857 283.43994141 272.57470703 C283.57954281 275.12518129 283.71477179 277.67589771 283.84619141 280.22680664 C284.43681183 291.57724981 285.24591415 302.65229485 287.375 313.83984375 C288.88207611 321.87940482 289.64963173 329.65442084 289.6875 337.83984375 C289.70224365 339.25922241 289.70224365 339.25922241 289.71728516 340.70727539 C289.61875939 348.60004578 287.80533996 354.38531652 282.25 360.27734375 C278.46086397 362.8713733 274.18929665 362.76797099 269.75 362.96484375 C268.94989502 363.00319336 268.14979004 363.04154297 267.32543945 363.08105469 C249.28107674 363.81319514 249.28107674 363.81319514 243.25 359.27734375 C241.703125 356.90234375 241.703125 356.90234375 240.5 354.27734375 C240.09265625 353.41109375 239.6853125 352.54484375 239.265625 351.65234375 C238.25 349.27734375 238.25 349.27734375 237.25 346.27734375 C235.38794922 346.02210938 235.38794922 346.02210938 233.48828125 345.76171875 C231.84623066 345.51775695 230.20431006 345.27291904 228.5625 345.02734375 C227.74587891 344.91777344 226.92925781 344.80820312 226.08789062 344.6953125 C221.11232113 343.92984027 217.75686624 343.14437463 214.25 339.27734375 C211.06298996 334.20603793 209.2358499 328.73113053 207.75 322.96484375 C207.43808716 321.76843262 207.43808716 321.76843262 207.11987305 320.54785156 C204.25587458 308.9606321 202.82364017 297.09381345 201.25 285.27734375 C201.02004041 283.59107632 200.78963044 281.90487019 200.55859375 280.21875 C200.10609823 276.90699581 199.675759 273.59264011 199.25 270.27734375 C198.36538086 270.44731873 198.36538086 270.44731873 197.46289062 270.62072754 C184.521284 273.04480712 171.72401507 274.65409025 158.5625 275.18359375 C157.89741425 275.21079498 157.23232849 275.23799622 156.54708862 275.26602173 C151.08277649 275.4844492 145.61741374 275.66852477 140.15161133 275.84515381 C136.6887024 275.9576211 133.22638815 276.07695356 129.7644043 276.21520996 C127.2039595 276.3162073 124.64284658 276.40189827 122.08129883 276.46936035 C113.6649337 276.80930036 107.11029688 278.11891903 100.5 283.52734375 C90.65924383 295.55493463 89.70077412 308.48856195 88.6875 323.46484375 C85.68702443 365.9334455 85.68702443 365.9334455 76.25390625 377.55859375 C69.02885521 383.75551862 59.19477195 386.70786999 49.78515625 386.55078125 C43.33337799 385.85490378 37.1848126 383.85084076 32.75 378.96484375 C27.13513497 371.40823865 26.07792359 363.69094823 26.125 354.46484375 C26.1254834 353.54195557 26.1259668 352.61906738 26.12646484 351.66821289 C26.15699661 344.99702287 26.32876127 338.33503721 26.546875 331.66796875 C27.86218608 299.65870921 27.86218608 299.65870921 22.25 268.27734375 C21.90977923 266.9457512 21.57388955 265.61300256 21.25 264.27734375 C17.19676962 265.96688331 16.497605 267.83775618 14.6796875 271.76953125 C12.54054306 275.52180101 9.7033081 278.62302041 6.875 281.86010742 C2.93684783 286.39426593 -0.7062912 291.10150521 -4.3125 295.90234375 C-17.555748 313.327264 -33.87972271 331.0928309 -56.75 334.27734375 C-61.53995386 334.49368067 -66.33061301 334.46246085 -71.125 334.46484375 C-73.05859375 334.48321289 -73.05859375 334.48321289 -75.03125 334.50195312 C-90.84508902 334.52630709 -90.84508902 334.52630709 -95.6875 330.77734375 C-99.15589815 325.88078166 -98.53676732 319.99208 -97.75 314.27734375 C-95.75686745 309.17670743 -92.78399012 304.80164563 -89.75 300.27734375 C-88.50209227 298.3792427 -87.25474022 296.48077625 -86.0078125 294.58203125 C-81.96158739 288.45351839 -77.86059928 282.36278992 -73.75 276.27734375 C-71.95457414 273.61318177 -70.16228106 270.94697648 -68.375 268.27734375 C-67.98731445 267.69895752 -67.59962891 267.12057129 -67.20019531 266.5246582 C-63.80545315 261.42751465 -60.59581028 256.22082926 -57.37988281 251.00976562 C-53.77734661 245.21925651 -49.87251107 239.71260974 -45.75 234.27734375 C-46.51441406 234.09300781 -47.27882813 233.90867188 -48.06640625 233.71875 C-62.5843635 229.78789515 -73.9957426 221.39253597 -85.75 212.27734375 C-87.16605 211.27647071 -88.58264722 210.27637105 -90 209.27734375 C-99.95980981 201.71948391 -106.09403217 192.31545271 -107.81640625 179.87109375 C-108.8318831 172.25351813 -109.36594847 164.63388086 -109.8125 156.96484375 C-110.34653442 147.27347852 -110.34653442 147.27347852 -111.2890625 137.6171875 C-113.88341705 115.78751074 -111.91439656 95.11086382 -98.5 76.96484375 C-92.08089552 70.69162801 -85.03579947 66.11668589 -76.875 62.46484375 C-76.26422607 62.18713135 -75.65345215 61.90941895 -75.02416992 61.62329102 C-63.96911822 56.92985291 -52.47089889 55.78420124 -40.5859375 55.36328125 C-39.17675818 55.30389002 -37.76762941 55.24328859 -36.35855103 55.18154907 C-32.69415481 55.02360906 -29.02936364 54.87933849 -25.36425781 54.73895264 C-19.4649523 54.51078227 -13.56648503 54.26214006 -7.66807938 54.01195145 C-5.6169566 53.92706499 -3.56566474 53.84860129 -1.51425171 53.77108765 C-0.27511017 53.720784 0.96403137 53.67048035 2.24072266 53.61865234 C3.33180328 53.57662689 4.42288391 53.53460144 5.54702759 53.49130249 C8.34668851 53.37865929 8.34668851 53.37865929 11.25 52.27734375 C10.54875 51.69984375 9.8475 51.12234375 9.125 50.52734375 C1.43987217 42.66755392 -0.68195818 32.42874222 -2.20703125 21.96484375 C-2.63931666 18.52098798 -2.63931666 18.52098798 -3.31640625 16.1953125 C-3.96574295 13.32302131 -3.88158096 10.52824438 -3.875 7.58984375 C-3.87757812 6.43097656 -3.88015625 5.27210937 -3.8828125 4.078125 C-3.7071577 0.37387528 -3.7071577 0.37387528 0 0 Z M39.25 58.27734375 C37.85948343 58.41785415 36.46314448 58.50306223 35.06665039 58.55859375 C34.20137222 58.59533203 33.33609406 58.63207031 32.44459534 58.66992188 C31.50510544 58.70537109 30.56561554 58.74082031 29.59765625 58.77734375 C28.62775253 58.81794922 27.65784882 58.85855469 26.65855408 58.90039062 C23.54336208 59.03034193 20.4279716 59.15429187 17.3125 59.27734375 C14.22919633 59.40101406 11.14596844 59.52606548 8.06285095 59.65429688 C6.14398944 59.73392399 4.22501623 59.81092169 2.30592346 59.88476562 C-3.21948444 60.11191779 -8.69950268 60.52840972 -14.20411682 61.05444336 C-17.62015296 61.35352848 -21.00901476 61.47297271 -24.4375 61.55859375 C-25.44043091 61.58620789 -25.44043091 61.58620789 -26.46362305 61.61437988 C-29.25980368 61.69126261 -32.05616649 61.76010265 -34.85253906 61.82958984 C-55.60968614 62.35747809 -75.48362695 64.61869304 -91.625 79.33984375 C-103.2806052 91.95960747 -106.39839259 108.22261987 -105.984375 124.83203125 C-105.77218574 129.91374763 -105.02881118 134.87510275 -104.25390625 139.8984375 C-103.48601794 145.68338191 -103.42580368 151.51320761 -103.25 157.33984375 C-102.49283261 181.00790545 -102.49283261 181.00790545 -90.43359375 200.859375 C-84.37338133 206.31974107 -77.54061347 210.78436543 -70.75 215.27734375 C-70.13334473 215.68968262 -69.51668945 216.10202148 -68.88134766 216.52685547 C-65.25193847 218.9359179 -61.56143269 221.16889162 -57.75 223.27734375 C-56.945625 223.73109375 -56.14125 224.18484375 -55.3125 224.65234375 C-44.51402124 229.63625702 -28.58652171 229.24275788 -17.40087891 225.58154297 C-15.59992934 224.91617223 -13.81333779 224.21234274 -12.02734375 223.5078125 C-7.94791901 221.97620488 -3.9977796 221.40938204 0.296875 220.80078125 C4.64972977 220.0292435 8.75232349 218.6215175 12.953125 217.265625 C16.08762007 216.32601925 19.16376161 215.64642578 22.375 215.02734375 C43.77681669 210.5696044 64.49146468 202.91448526 85.11599731 195.79013062 C85.99037445 195.48813751 86.86475159 195.18614441 87.765625 194.875 C88.6400827 194.57292633 89.51454041 194.27085266 90.41549683 193.95962524 C96.29827052 191.93339477 102.19638714 189.95961611 108.109375 188.0234375 C139.50011842 180.37364973 139.50011842 180.37364973 164.921875 163.90234375 C165.27765625 163.03609375 165.6334375 162.16984375 166 161.27734375 C166.54914063 160.00890625 166.54914063 160.00890625 167.109375 158.71484375 C170.59006698 148.22508711 171.75652948 138.74105363 171.69604492 127.76025391 C171.68753569 125.41219191 171.7163991 123.06657352 171.74804688 120.71875 C171.79328159 110.84486185 170.48226086 102.6701614 167.25 93.27734375 C166.60178187 91.15307 165.95561258 89.02816874 165.3125 86.90234375 C162.08965342 77.5808798 158.22926044 71.74389104 149.25 67.27734375 C129.17838663 58.46924599 109.19037567 57.10944221 87.51171875 57.14453125 C86.17031334 57.14385501 84.82890805 57.14288234 83.48750305 57.14163208 C80.7137431 57.14017675 77.94001585 57.14224311 75.16625977 57.14697266 C71.60992 57.15274192 68.05365453 57.14933262 64.49731731 57.14340019 C61.08544502 57.13893464 57.67359316 57.14204999 54.26171875 57.14453125 C52.9847966 57.14250702 51.70787445 57.14048279 50.39225769 57.13839722 C49.21955826 57.14154938 48.04685883 57.14470154 46.83862305 57.14794922 C45.8046489 57.14874481 44.77067474 57.14954041 43.70536804 57.15036011 C41.24433321 57.11333481 41.24433321 57.11333481 39.25 58.27734375 Z M173.25 158.27734375 C172.92128906 159.00179687 172.59257812 159.72625 172.25390625 160.47265625 C171.77824219 161.43945312 171.30257813 162.40625 170.8125 163.40234375 C170.13380859 164.82933594 170.13380859 164.82933594 169.44140625 166.28515625 C163.68348742 174.14712741 154.28133421 177.1637136 145.4375 180.40234375 C144.18383033 180.86979736 142.93025204 181.33749609 141.67675781 181.80541992 C129.19412012 186.42737587 116.55888968 190.60776531 103.91073608 194.75033569 C103.20284943 194.98225616 102.49496277 195.21417664 101.765625 195.453125 C101.05934967 195.68448151 100.35307434 195.91583801 99.62539673 196.15420532 C94.64085684 197.79602619 89.68926975 199.51916455 84.74609375 201.28125 C76.9435964 204.06024088 69.09363442 206.67045323 61.21020508 209.20996094 C59.05110086 209.90601863 56.89367087 210.60709808 54.73632812 211.30859375 C32.00409348 218.67220482 32.00409348 218.67220482 21.125 220.83984375 C15.72143259 221.95198738 10.38635659 223.22828077 5.04296875 224.59765625 C2.47382431 225.22287462 -0.08753816 225.73755607 -2.6875 226.21484375 C-6.54424151 226.94449755 -10.15209263 228.03637463 -13.875 229.27734375 C-17.56947787 230.50302059 -20.90836549 231.37507446 -24.78515625 231.5234375 C-32.72865544 231.8053731 -32.72865544 231.8053731 -39.56640625 235.62109375 C-42.25837677 239.04330989 -44.512959 242.55070492 -46.75 246.27734375 C-47.69601045 247.76459733 -48.64673433 249.24886079 -49.6015625 250.73046875 C-51.65337348 253.93116021 -53.67580237 257.14800913 -55.6796875 260.37890625 C-58.61537354 265.09277926 -61.65847184 269.72703936 -64.75 274.33984375 C-65.24266357 275.07589844 -65.73532715 275.81195313 -66.24291992 276.5703125 C-68.25659066 279.57388734 -70.27528409 282.57402765 -72.29833984 285.57128906 C-75.33705293 290.07456848 -78.35750139 294.58871054 -81.33935547 299.12988281 C-82.27144223 300.54882279 -83.207895 301.96490546 -84.14892578 303.37792969 C-91.11112192 313.44176746 -91.11112192 313.44176746 -91.75 325.27734375 C-87.73689666 329.29044709 -80.63042213 328.42167884 -75.22583008 328.46777344 C-62.86020469 328.52756487 -62.86020469 328.52756487 -50.75 326.27734375 C-49.96367188 326.06722656 -49.17734375 325.85710937 -48.3671875 325.640625 C-39.94411782 322.8645329 -33.41632778 316.92081511 -26.75 311.27734375 C-26.09394775 310.73948242 -25.43789551 310.20162109 -24.76196289 309.64746094 C-19.92090145 305.5852417 -16.14572586 301.25269232 -12.4375 296.15234375 C-8.39629448 290.71537574 -4.26967525 285.44147638 0.1875 280.33984375 C4.00782061 275.94840587 7.12992981 271.45456247 9.96875 266.37109375 C11.70588066 263.53236803 13.83773074 261.54771482 16.25 259.27734375 C16.25 258.61734375 16.25 257.95734375 16.25 257.27734375 C14.23208664 255.68765128 14.23208664 255.68765128 11.75 254.15234375 C10.9146875 253.61351562 10.079375 253.0746875 9.21875 252.51953125 C8.5690625 252.10960937 7.919375 251.6996875 7.25 251.27734375 C7.745 249.29734375 7.745 249.29734375 8.25 247.27734375 C15.06524883 248.24752856 19.89950741 252.24150235 24.05859375 257.61328125 C32.99371001 271.74012342 33.58087377 288.3225689 33.33919907 304.55736732 C33.30374797 307.01834624 33.2836171 309.47905448 33.2673645 311.94023132 C33.21901172 318.92598935 33.14716869 325.91137448 33.05810547 332.89672852 C33.00430542 337.19871354 32.97038572 341.50049614 32.94836807 345.80275536 C32.93603942 347.42817943 32.9161445 349.05356598 32.8882103 350.67879677 C32.52910524 363.05362565 32.52910524 363.05362565 37.25 374.27734375 C41.84627236 378.87361611 45.92156772 379.4589145 52.25 379.71484375 C59.66920471 379.65629309 65.16277309 377.44482715 71.25 373.27734375 C78.79501585 365.3550771 79.98436554 352.19866766 80.9375 341.77734375 C81.06068604 340.5562793 81.18387207 339.33521484 81.31079102 338.07714844 C82.00774557 330.89366285 82.44677132 323.73848931 82.6875 316.52734375 C83.25758912 301.5643945 86.40275895 287.8120848 97.375 276.83984375 C107.75730041 269.17021206 120.91669223 269.65632926 133.1875 269.58984375 C135.67771775 269.56060393 138.16776277 269.52596935 140.65785217 269.48735046 C142.19263275 269.46518175 143.7275197 269.4491719 145.26243591 269.44050598 C149.36610854 269.39917011 153.21809566 269.01817569 157.25 268.27734375 C158.62947791 268.1662543 160.01150625 268.08166837 161.39453125 268.03125 C162.14500732 267.99990967 162.8954834 267.96856934 163.66870117 267.9362793 C164.45865479 267.90445557 165.2486084 267.87263184 166.0625 267.83984375 C184.50915464 266.94970927 202.18582612 264.78431858 219.25 257.27734375 C223.16451215 255.58264641 225.95815359 255.07772299 230.25 255.27734375 C232.77658956 260.43296927 233.7169192 264.74641654 233.83984375 270.5078125 C233.89976984 272.1180937 233.96000356 273.72836347 234.02050781 275.33862305 C234.06044861 276.59344986 234.06044861 276.59344986 234.10119629 277.87362671 C235.14470642 317.94369895 235.14470642 317.94369895 248.25 355.27734375 C252.58160053 357.44314402 258.30474144 356.59615981 263.0625 356.65234375 C264.25166016 356.68972656 265.44082031 356.72710937 266.66601562 356.765625 C273.45646955 356.92494574 273.45646955 356.92494574 279.44921875 354.12890625 C282.87366223 348.70625171 283.6112233 343.85546659 283.5625 337.52734375 C283.55839111 336.42567871 283.55839111 336.42567871 283.55419922 335.30175781 C283.37825379 325.75216777 281.45203893 316.48017284 279.640625 307.1328125 C278.33183618 299.72625758 278.00061703 292.40484604 277.75 284.90234375 C277.27772954 271.23765018 276.16869502 258.98380831 271.52734375 245.99609375 C270.30763718 242.44514373 269.34393267 238.91918878 268.4375 235.27734375 C261.25992374 207.91642303 251.56766276 183.33556147 226.25 168.27734375 C209.96044978 158.83562993 191.64477347 157.83704332 173.25 158.27734375 Z " fill="#020304" transform="translate(111.75,-0.27734375)"/>
<path d="M0 0 C4.59360345 3.10719063 6.75950237 6.54915882 8.38671875 11.8828125 C8.58910156 12.52734375 8.79148437 13.171875 9 13.8359375 C11.09495997 21.53170882 12.11355915 31.37796272 9.19921875 38.9453125 C-0.96829138 55.42369098 -30.41602572 59.54529477 -48.05078125 63.8828125 C-49.26427246 64.18558105 -50.47776367 64.48834961 -51.72802734 64.80029297 C-60.71599411 66.93432491 -69.29865884 68.87158594 -77.61328125 63.8828125 C-80.21593277 59.64865377 -80.99631389 56.42480543 -81.01171875 51.48828125 C-81.01558594 50.28494141 -81.01945312 49.08160156 -81.0234375 47.84179688 C-81.01183594 46.59720703 -81.00023438 45.35261719 -80.98828125 44.0703125 C-80.99988281 42.83732422 -81.01148437 41.60433594 -81.0234375 40.33398438 C-80.97341913 24.71991532 -80.97341913 24.71991532 -76.23217773 19.30566406 C-71.23720055 14.93985812 -67.64169528 13.73142098 -61.11328125 13.6953125 C-48.97603416 13.22593293 -37.32762944 8.3968086 -26.63500977 2.88598633 C-18.14458807 -1.46827892 -9.24143557 -3.95074824 0 0 Z " fill="#5C7FC8" transform="translate(166.61328125,106.1171875)"/>
<path d="M0 0 C5.52926992 1.67896079 11.31025341 3.88115426 15.03125 8.4921875 C18.38724567 15.83441277 17.90018689 26.98287875 15.5625 34.609375 C9.02677362 50.84791985 9.02677362 50.84791985 1.67578125 54.8125 C-5.13061414 57.27419226 -12.10790183 58.52359692 -19.32421875 57.8125 C-20.05125 57.74289063 -20.77828125 57.67328125 -21.52734375 57.6015625 C-28.40652486 56.51917386 -34.41241562 52.72430313 -39.32421875 47.8125 C-39.6081669 43.82001691 -39.55617431 39.81385527 -39.57421875 35.8125 C-39.59484375 34.70003906 -39.61546875 33.58757812 -39.63671875 32.44140625 C-39.66876007 25.64063702 -38.99629609 20.07688741 -36.32421875 13.8125 C-36.01323242 13.0599292 -35.70224609 12.3073584 -35.38183594 11.53198242 C-33.30170422 6.67425619 -31.01738394 4.45240542 -26.32421875 1.8125 C-25.73769531 1.28914063 -25.15117187 0.76578125 -24.546875 0.2265625 C-18.30234539 -3.74623138 -6.99929955 -1.4931839 0 0 Z " fill="#010102" transform="translate(214.32421875,64.1875)"/>
<path d="M0 0 C0.99 0.495 0.99 0.495 2 1 C2.7308255 8.77923142 1.42266483 13.59391166 -3 20 C-3.70125 21.0725 -4.4025 22.145 -5.125 23.25 C-12.10138494 29.92306386 -22.08641063 32.08530482 -31.1328125 34.80859375 C-35.3160388 36.07583517 -39.39783291 37.57381825 -43.4921875 39.1015625 C-46.79295047 40.28407883 -50.14257961 41.25025294 -53.5078125 42.23046875 C-56.00594635 43.0018361 -58.43006636 43.88708119 -60.875 44.8125 C-67.05236433 47.10921238 -73.35613673 48.93321983 -79.67773438 50.78393555 C-84.00165144 52.06017023 -88.20108134 53.40950592 -92.375 55.125 C-98.58076049 57.49002998 -105.09967767 58.3875397 -111.61938477 59.50048828 C-117.10547381 60.44412327 -122.43802209 61.55171964 -127.8125 63 C-150.89868681 68.96193144 -173.32739899 69.51673883 -197 69 C-197 68.67 -197 68.34 -197 68 C-195.37191406 67.60167969 -195.37191406 67.60167969 -193.7109375 67.1953125 C-192.26559353 66.83866918 -190.82028278 66.4818912 -189.375 66.125 C-188.30572266 65.86396484 -188.30572266 65.86396484 -187.21484375 65.59765625 C-184.05741461 64.81554078 -180.97706443 63.99230679 -177.890625 62.95703125 C-174.74215081 61.91463101 -171.624337 61.22357201 -168.375 60.5625 C-162.87871533 59.41600037 -157.44460991 58.12870516 -152.0078125 56.73046875 C-148.9760941 55.99419428 -145.93810431 55.4032953 -142.875 54.8125 C-124.11678805 50.86889371 -105.7983322 44.07918871 -87.703125 37.82421875 C-86.53144775 37.41929199 -85.35977051 37.01436523 -84.15258789 36.59716797 C-81.65658565 35.73405672 -79.16098575 34.86978116 -76.66577148 34.00439453 C-70.23728043 31.77892468 -63.79952249 29.59016355 -57.33203125 27.48046875 C-45.15676324 23.5053508 -33.05214426 19.42563951 -21.125 14.75 C-20.1153418 14.36199219 -19.10568359 13.97398437 -18.06542969 13.57421875 C-10.85855335 10.68067875 -3.24237331 7.49232067 0 0 Z " fill="#4E5FA1" transform="translate(282,164)"/>
<path d="M0 0 C1.06891479 -0.0151062 1.06891479 -0.0151062 2.15942383 -0.03051758 C8.4646912 0.07272742 13.22660341 1.54564031 18 5.875 C18.763125 6.720625 19.52625 7.56625 20.3125 8.4375 C21.09625 9.015 21.88 9.5925 22.6875 10.1875 C24.75639178 13.05211939 24.7379004 15.09124747 24.1875 18.53125 C23.0094338 22.44411275 21.36023684 26.02371566 19.5625 29.6875 C19.22766602 30.37295898 18.89283203 31.05841797 18.54785156 31.76464844 C14.15704817 40.27624366 7.55920451 45.51966385 -1.44262695 48.8046875 C-5.24822437 49.87745623 -8.94376806 49.91124774 -12.875 49.875 C-13.65552734 49.89498047 -14.43605469 49.91496094 -15.24023438 49.93554688 C-19.10407096 49.93226966 -21.18334831 49.74982474 -24.53125 47.67578125 C-28.85647503 43.18600961 -32.27018209 38.94140747 -33.3125 32.6875 C-32.49430879 22.98608995 -28.93312681 13.68312681 -22.0625 6.8125 C-15.23315318 1.60196132 -8.44058931 0.07753702 0 0 Z " fill="#010203" transform="translate(66.6875,89.5625)"/>
<path d="M0 0 C3.56765488 1.89183901 5.58202791 3.34738558 6.875 7.3125 C7.72840897 14.58502864 6.76052837 20.21665279 2.46875 26.30859375 C-1.30195208 31.01307819 -5.29109863 33.76817587 -10.51171875 36.69140625 C-17.67047118 41.1321869 -23.56517791 47.60587886 -29.3359375 53.68359375 C-33.14628898 57.1528439 -36.0083178 57.54507646 -41.125 57.3125 C-45.20227142 23.16535185 -45.20227142 23.16535185 -36.5 10.0625 C-27.99190769 -0.63215038 -12.7403688 -5.15880507 0 0 Z " fill="#010203" transform="translate(403.125,99.6875)"/>
<path d="M0 0 C4.59360345 3.10719063 6.75950237 6.54915882 8.38671875 11.8828125 C8.58910156 12.52734375 8.79148437 13.171875 9 13.8359375 C11.09495997 21.53170882 12.11355915 31.37796272 9.19921875 38.9453125 C-0.96829138 55.42369098 -30.41602572 59.54529477 -48.05078125 63.8828125 C-49.26427246 64.18558105 -50.47776367 64.48834961 -51.72802734 64.80029297 C-60.71599411 66.93432491 -69.29865884 68.87158594 -77.61328125 63.8828125 C-80.21593277 59.64865377 -80.99631389 56.42480543 -81.01171875 51.48828125 C-81.01558594 50.28494141 -81.01945312 49.08160156 -81.0234375 47.84179688 C-81.01183594 46.59720703 -81.00023438 45.35261719 -80.98828125 44.0703125 C-80.99988281 42.83732422 -81.01148437 41.60433594 -81.0234375 40.33398438 C-80.97341913 24.71991532 -80.97341913 24.71991532 -76.23217773 19.30566406 C-71.23720055 14.93985812 -67.64169528 13.73142098 -61.11328125 13.6953125 C-48.97603416 13.22593293 -37.32762944 8.3968086 -26.63500977 2.88598633 C-18.14458807 -1.46827892 -9.24143557 -3.95074824 0 0 Z M-28.54541016 10.31323242 C-39.38692258 15.21882867 -50.00457424 18.65280705 -61.86328125 19.8203125 C-67.6084153 20.36477387 -67.6084153 20.36477387 -71.98828125 23.7578125 C-75.38075257 30.28179581 -74.79687915 36.72252442 -74.80078125 43.9453125 C-74.81302734 45.14220703 -74.82527344 46.33910156 -74.83789062 47.57226562 C-74.83982422 48.71759766 -74.84175781 49.86292969 -74.84375 51.04296875 C-74.84785889 52.09105713 -74.85196777 53.13914551 -74.85620117 54.21899414 C-74.80599987 57.11031657 -74.80599987 57.11031657 -72.61328125 59.8828125 C-56.96344944 65.0994231 -34.38871687 54.40345656 -19.36328125 49.2578125 C-18.66897003 49.02242767 -17.97465881 48.78704285 -17.25930786 48.54452515 C-15.26381058 47.86381357 -13.27375674 47.16932528 -11.28515625 46.46875 C-10.14143555 46.0670459 -8.99771484 45.6653418 -7.81933594 45.25146484 C-2.37469344 42.92716802 1.98707951 40.44932258 4.38671875 34.8828125 C5.60974802 25.1705212 4.58113708 15.13814589 -0.55078125 6.6953125 C-10.07677043 1.05748217 -19.44984824 6.19425842 -28.54541016 10.31323242 Z " fill="#04060A" transform="translate(166.61328125,106.1171875)"/>
<path d="M0 0 C1.52108748 3.04217497 1.33893331 6.26760126 1.5 9.61328125 C1.54060547 10.37867722 1.58121094 11.14407318 1.62304688 11.93266296 C1.75287773 14.39241154 1.87674293 16.85241399 2 19.3125 C2.0318784 36.93967138 2.0318784 36.93967138 5 54 C5.17613923 55.70547504 5.31811415 57.41461491 5.4375 59.125 C5.80146889 63.55720176 6.49533798 67.72267023 7.59765625 72.02734375 C8 74 8 74 8 78 C2.33210834 78.30363705 -3.29427824 78.58242044 -8 75 C-19.30976496 58.62034041 -21.1209293 26.30489343 -20 7 C-19.28714844 6.74605469 -18.57429688 6.49210937 -17.83984375 6.23046875 C-11.32776068 3.89464612 -11.32776068 3.89464612 -4.9375 1.25 C-2 0 -2 0 0 0 Z " fill="#5C7FC9" transform="translate(339,260)"/>
<path d="M0 0 C0.58523437 0.37769531 1.17046875 0.75539063 1.7734375 1.14453125 C4.22632541 2.7171786 6.68659185 4.27760208 9.15136719 5.83154297 C10.43012804 6.63980359 11.70668356 7.45156 12.98144531 8.26611328 C27.76154964 17.68765243 43.05783377 26.16421203 60 31 C57.91877403 35.47043605 55.4932078 37.99381256 50.8125 39.8828125 C39.9466174 43.56434509 26.24726886 45.73305082 15.25 41.375 C9.12127555 37.5713336 6.11033055 30.67288878 4 24 C3.23904062 20.33997099 2.71803271 16.78049735 2.38671875 13.05859375 C2.13357465 10.01497392 2.13357465 10.01497392 0.95703125 7.41015625 C-0.09214353 4.76794873 -0.16091063 2.815936 0 0 Z " fill="#42B97B" transform="translate(114,8)"/>
<path d="M0 0 C2.45738068 3.68607102 2.32661924 5.27916667 1.71875 9.52734375 C-0.21503055 16.17996924 -4.94199316 20.63881075 -10.8125 24 C-11.65941406 24.4640625 -12.50632812 24.928125 -13.37890625 25.40625 C-19.49605342 29.12576721 -24.5277849 34.45753158 -29.5 39.5625 C-32 42 -32 42 -34 42 C-37.34914948 18.55595361 -37.34914948 18.55595361 -32.4609375 10.73828125 C-23.99624193 0.6666515 -13.05619583 -6.05043222 0 0 Z " fill="#5C7FC9" transform="translate(402,106)"/>
<path d="M0 0 C2.8100346 1.79363911 4.50940468 3.01880935 6 6 C6.06996014 7.70702735 6.08440154 9.41668003 6.0625 11.125 C6.05347656 12.03507812 6.04445312 12.94515625 6.03515625 13.8828125 C6.02355469 14.58148438 6.01195312 15.28015625 6 16 C-3.40687902 15.35862189 -12.06743168 10.86771238 -20 6 C-18.2667036 2.53340719 -14.43701511 2.04733595 -10.92578125 0.8359375 C-6.89765552 -0.31495556 -4.16637998 -0.5746731 0 0 Z " fill="#348462" transform="translate(170,17)"/>
<path d="M0 0 C2.0625 1.3125 2.0625 1.3125 3 3.375 C3.09187708 7.69322256 1.60238551 11.31923758 0.0625 15.3125 C-2.27044775 15.35491723 -4.60452567 15.35342937 -6.9375 15.3125 C-8.66872319 13.58127681 -8.27185124 11.35991865 -8.375 9 C-8.36828891 3.83246096 -8.36828891 3.83246096 -6.59765625 1.6953125 C-2.55940087 -0.9081745 -2.55940087 -0.9081745 0 0 Z " fill="#F4F4F4" transform="translate(189.9375,83.6875)"/>
<path d="M0 0 C2.4375 0.75 2.4375 0.75 5 2 C6.46685577 5.42266346 5.69472229 7.80804423 4.5625 11.25 C4.13130859 12.58804688 4.13130859 12.58804688 3.69140625 13.953125 C3.46324219 14.62859375 3.23507813 15.3040625 3 16 C-2.875 15.125 -2.875 15.125 -4 14 C-4.5936444 9.2897723 -4.63528961 5.97278721 -2 1.9375 C-1.34 1.298125 -0.68 0.65875 0 0 Z " fill="#F2F2F2" transform="translate(50,99)"/>
<path d="M0 0 C3.69230769 0.69230769 3.69230769 0.69230769 5 2 C5.07325168 4.86267567 5.09238205 7.700719 5.0625 10.5625 C5.05798828 11.36880859 5.05347656 12.17511719 5.04882812 13.00585938 C5.03700518 15.00393756 5.01906914 17.00197783 5 19 C3.33388095 19.042721 1.66617115 19.04063832 0 19 C-1.8855253 17.1144747 -1.13246689 14.42231169 -1.13671875 11.91796875 C-1.13285156 11.12003906 -1.12898438 10.32210937 -1.125 9.5 C-1.12886719 8.70207031 -1.13273437 7.90414062 -1.13671875 7.08203125 C-1.12660767 1.12660767 -1.12660767 1.12660767 0 0 Z " fill="#070A10" transform="translate(104,131)"/>
<path d="M0 0 C1.65 0 3.3 0 5 0 C6.4241906 2.84838121 6.16995508 5.32787908 6.1875 8.5 C6.20167969 9.6653125 6.21585938 10.830625 6.23046875 12.03125 C6 15 6 15 4 17 C2.68 16.67 1.36 16.34 0 16 C0 10.72 0 5.44 0 0 Z " fill="#06080D" transform="translate(124,130)"/>
</svg>
